<?xml version="1.0" encoding="utf-8"?>
<!-- Generator: Adobe Illustrator 24.0.1, SVG Export Plug-In . SVG Version: 6.00 Build 0)  -->
<svg version="1.1" id="Capa_1" xmlns="http://www.w3.org/2000/svg" xmlns:xlink="http://www.w3.org/1999/xlink" x="0px" y="0px"
	 viewBox="0 0 1290.37 510.2" style="enable-background:new 0 0 1290.37 510.2;" xml:space="preserve">
<style type="text/css">
	.st0{fill:#FFFFFF;}
	.st1{fill:#5EB4D7;}
	.st2{fill:#5EB5D8;}
	.st3{fill:none;stroke:#000000;stroke-miterlimit:10;}
	.st4{font-family:'AvenirNext-Regular';}
	.st5{font-size:38px;}
</style>
<path class="st0" d="M72.74,343.25c-3.88-4.16-7.35-7.94-10.88-11.66c-4.3-4.54-6.93-10.1-9.79-15.54
	c-0.72-1.38-1.42-3.52-3.53-2.69c-1.97,0.78-1.15,2.88-1.02,4.44c0.09,1.13,0.48,2.3,0.98,3.33c2.72,5.68,5.53,11.32,8.27,17
	c0.56,1.16,1.93,2.3,1.28,3.57c-0.76,1.49-2.42,0.53-3.61,0.4c-5.28-0.58-10.55-1.33-15.82-2.05c-1.15-0.16-2.52-0.69-2.89,0.89
	c-0.27,1.16,0.99,1.57,1.87,1.97c20.94,9.63,42.33,17.28,65.79,18.12c29.65,1.07,59.2,0.35,88.69-2.83c2.77-0.3,4.18,0.57,5.5,2.92
	c2.37,4.21,5.14,8.15,9.94,10.1c2.45,0.99,2.42,2.24,0.72,4.41c-4.99,6.36-10.33,12.35-13.55,20.12
	c-2.23,5.38-4.69,10.93-8.34,15.76c-5.05,6.68-0.1,24.89,7.57,28.49c0.89,0.42,1.92,1.01,2.8,0.9c5.5-0.72,10.66,0.93,15.93,1.94
	c2.58,0.5,3.21-0.66,2.71-3.11c-0.71-3.5-3.57-5.04-5.95-7.06c-6.78-5.75-7.1-15.04-0.76-21.02c1.69-1.59,3.34-3.26,4.82-5.04
	c2.4-2.88,4.85-5.12,9.11-4.9c3.03,0.15,6.35-1.3,7.57-4.08c2.89-6.59,7.98-6.06,13.47-5.12c0.98,0.17,2,0.37,2.97,0.28
	c2.13-0.21,3.08,0.94,3.4,2.77c1.05,6.07,4.19,11.15,7.63,16.05c2.56,3.65,4.18,7.61,4.26,12.02c0.11,6.22,3.25,11.04,6.79,15.69
	c1.53,2.02,3.52,3.59,6.26,3.59c8.31-0.01,16.63-0.05,24.94-0.11c0.78-0.01,1.75,0.18,2.06-0.88c0.27-0.92-0.34-1.53-0.94-2.14
	c-2.59-2.64-5.81-4.41-8.83-6.47c-5.3-3.61-10.39-7.64-10.89-14.63c-0.5-6.96-0.08-13.94,0.75-20.9c0.29-2.42,1.3-2.94,3.51-2.98
	c8.89-0.18,17.54,1.37,26.14,3.34c1.59,0.36,2.6,1.09,2.87,2.91c1.9,12.79,7.45,24.31,12.68,35.94c1.23,2.74,2.98,4.3,6.1,5.15
	c7.41,2.02,14.94-0.78,22.31,1.06c1.84,0.46,4.37,0.63,5.26-1.61c0.92-2.3-1.38-3.45-2.79-4.78c-4.28-4.03-9.86-6.13-14.47-9.7
	c-1.82-1.41-3.32-2.86-2.91-5.33c0.95-5.63,0.33-11.28,0.33-16.93c0-3.01,0.18-5.96,0.98-8.88c0.88-3.19,3.27-4.37,6.2-4.99
	c3.43-0.72,3.74,2.13,4.57,4.09c2.23,5.25,5.39,9.83,10.88,11.7c5.95,2.03,10,6.46,14.63,10.16c2.63,2.1,4,5.48,2.29,8.5
	c-2.71,4.78-0.15,6.73,3.55,8.32c6.41,2.75,12.31,7,19.96,6.11c1.71-0.2,3.87,1.88,5.41-0.2c1.53-2.07,0.24-4.12-1-5.94
	c-1.03-1.5-1.9-3.25-3.27-4.36c-3.87-3.15-4.86-7.09-4.78-11.92c0.1-5.65-0.22-11.51-5.76-15.09c-6.12-3.96-9.25-10.31-13.26-15.99
	c-1.6-2.27-0.69-3.19,1.58-3.72c1.45-0.34,2.86-0.91,4.32-1.16c20.82-3.56,41.39-8.3,62.07-12.55c5.92-1.22,10.66-4.53,10.58-8.27
	c-0.12-5.9-5.08-7.4-9.27-8.1c-9.77-1.62-19.32-4.9-29.9-4.09c2.32-3.97,1.22-7.62-0.01-11.24c-0.31-0.91-0.63-1.99-1.88-2.02
	c-1.19-0.03-1.67,0.92-2.14,1.8c-1.42,2.67-2.33,5.48-2.37,8.55c-0.02,1.23,0.42,2.83-1.48,3.19c-0.44,0.08-1.09-0.02-1.38-0.3
	c-1.13-1.09-0.17-2.16,0.28-3.14c1.28-2.82,1.42-5.73,1.2-8.76c-0.44-6.17-0.6-6.3-5.93-2.93c-0.16-0.85-0.26-1.68-0.47-2.48
	c-0.37-1.36,0.14-3.38-1.51-3.86c-1.76-0.51-2.32,1.54-3.27,2.58c-3.82,4.18-7.06,8.64-5.74,15.03c-7.81-2.98-8.07-3.22-3.11-8.57
	c4.97-5.37,7.82-11.35,8.03-18.65c0.06-2.26,0.08-4.38-3.03-3.21c-3.7,1.39-4.83,0.33-5.22-3.56c-0.52-5.23-2.03-5.54-6.18-1.97
	c-6.78,5.83-13.76,11.52-13.58,21.96c-8.35-5.37-8.3-5.31-1.77-11.24c3.5-3.17,7.83-5.71,8.5-11.17c0.54-4.44,1.6-8.81,2.19-13.25
	c1.55-11.64,1.48-11.77-9.82-9.81c-2.58,0.45-3.52-0.02-4.16-2.52c-0.96-3.68-2.22-7.3-3.62-10.84c-1.85-4.65-3.1-4.88-6.44-1.01
	c-3.14,3.65-5.97,7.56-8.86,11.41c-1.43,1.91-3.05,3.35-6.17,3.37c5.39-8.24,3.42-16.34,0.32-24.34c-0.94-2.41-0.82-3.72,1.72-5.02
	c18.85-9.67,29.72-25.52,34.69-45.67c1.09-4.43,2.48-9.03,1.19-13.76c-0.83,3.15-1.19,6.37-1.8,9.54
	c-4.13,21.19-14.84,37.77-34.05,48.42c-2.5,1.39-3.98,1.61-5.07-1.66c-1.2-3.6-2.98-7.02-4.62-10.45c-2.23-4.65-3.84-4.98-7.74-1.38
	c-2.74,2.52-5.22,5.31-8.03,8.2c-3.71-6.3-6.95-12.08-10.45-17.7c-3.68-5.91-5.08-5.98-9.23-0.35c-3.72,5.04-7.16,10.28-10.97,15.79
	c-0.68-1.14-1.31-1.89-1.6-2.75c-3.73-10.98-12.57-17.62-20.85-24.8c-3.32-2.88-5.72-3.39-8.1,1.03c-2.04,3.79-4.74,7.22-6.89,10.96
	c-1.41,2.46-2.77,2.76-5.11,1.2c-5.25-3.51-10.79-6.59-15.89-10.28c-3.38-2.44-4.96-1.8-5.91,1.95c-1.71,6.75-3.77,13.44-5.03,20.27
	c-0.8,4.34-2.27,4.44-5.89,2.94c-7.81-3.24-15.78-6.13-23.77-8.93c-5.82-2.04-7.38-0.69-6.44,5.43c0.48,3.1,1.31,6.16,2.26,9.16
	c0.96,3.04,0.02,5.92-1.72,7.89c-1.35,1.54-3.58-0.62-5.21-1.44c-5.86-2.93-11.7-1.45-17.56-0.28c-2.4,0.48-3.03,2.14-3.06,4.41
	c-0.07,5.03,0.87,9.9,2,14.76c0.63,2.71,0.49,4.49-3.3,3.8c-3.41-0.62-6.98-0.26-10.44-0.7c-3.95-0.5-6.4,0.21-6.3,4.94
	c0.05,2.45-1.01,4.9-1.06,7.37c-0.11,5.29-2.94,6.91-7.7,6.2c-4.06-0.61-6.04,1.16-7.04,5.07c-1.06,4.16-2.84,8.14-4.13,12.25
	c-1.04,3.32-2.36,5.12-6.37,3.45c-1.94-0.81-5.39-2.06-6.2,1.66c-1.2,5.47-4.16,10.89-0.96,16.64c-4.11,0.73-4.12,0.73-4.36-2.62
	c-0.72-9.68-2.69-19.04-7.06-27.79c-0.54-1.08-0.98-2.85-2.79-2c-1.51,0.71-0.5,1.99-0.25,3.06c2.14,9.2,1.21,18.52,1.02,27.81
	c-0.02,0.87,0.09,2.04-1.53,2.3c-4.36-6.25-10.02-11.68-10.48-20.24c-0.22-4.04-2.5-7.86-4.58-11.46c-0.74-1.29-1.27-3.7-3.32-2.8
	c-1.8,0.79-0.27,2.6-0.06,3.98c0.28,1.92,1.73,3.66,0.78,6.18c-2.14-2.54-4.12-4.93-6.15-7.28c-0.66-0.76-1.49-1.45-2.57-0.78
	c-1.13,0.7-0.62,1.67-0.33,2.63c1.64,5.43,3.89,10.68,6.91,15.4C75.27,331.54,75.34,336.84,72.74,343.25z"/>
<path class="st0" d="M713.47,243.45c3.54,4.95,7.38,8.56,11.2,12.19c15.06,14.29,30.41,16.35,45.95,6.06
	c2.4-1.59,6.47-3.25,5.34-6.32c-1.28-3.46-5.39-1.29-8.09-0.88c-16.07,2.42-20.91,0.13-28.44-14.21c-1.07-2.04-1.91-4.22-2.74-6.38
	c-6.18-16.17-9.97-32.97-13-49.96c-2-11.23-5.07-22.09-13.06-30.68c-3.95-4.24-6.66-9-8.72-14.32c-3.68-9.5-9.97-17.86-18.96-21.64
	c-13.65-5.75-24.13-15.72-36.33-23.32c-5.64-3.51-10.92-7.87-17.65-8.93c-11.46-1.8-20.9-8.07-30.85-13.22c-3.74-1.94-7-5.23-7-9.15
	c-0.01-11.29-10.09-13.91-16.33-19.5c-2.81-2.51-7.86-3.14-11.8-4.87c-2.59-1.14-5.29-0.82-7.64,0.72
	c-2.82,1.84-5.76,2.22-9.04,1.78c-3.78-0.51-7.61-0.68-11.43-0.94c-8.78-0.61-15.96,5.02-17.41,13.62
	c-0.93,5.55,3.32,11.29,7.76,15.1c4.19,3.6,7.95,2.99,12.31,2.3c0.49-0.08,0.97-0.28,1.46-0.31c0.94-0.05,1.65,0.51,1.92,1.3
	c0.49,1.44-0.69,1.4-1.63,1.7c-1.86,0.58-3.63,1.5-5.51,2.03c-6.06,1.7-7.6,5.19-4.68,10.65c2.66,4.98,6.92,6.92,12.36,6.64
	c1.48-0.08,3.11-0.78,4.37,0.21c4.27,3.34,8.44,2.73,13.03,0.53c2.76-1.32,6.62-2.45,8.58,0.74c3.48,5.68,7.2,11.14,11.22,16.43
	c1.93,2.54,0.65,5.63-1.45,6.22c-4.5,1.24-6.43,4.4-8.19,8c-0.5,1.02-1,1.62-2.16,1.63c-5.76,0.08-8.94,3.84-11.57,8.26
	c-0.96,1.61-2.97,3.72-0.74,5.19c1.67,1.1,4.25,1.45,5.94-1.31c2.23-3.66,5.45-4.55,9.87-3.57c4.59,1.02,10.2,3.24,13.97-0.2
	c4-3.64,5.69-1.31,7.83,1.1c8.07,9.1,16.35,17.97,27,24.15c2.69,1.56,1.52,3.15,0.58,4.91c-4.55,8.48-9.13,16.94-13.62,25.45
	c-1.24,2.34-2.76,4.99-1.77,7.55c2.72,6.99,2.31,14.63,4.95,21.64c2.04,5.41,3.81,10.97,5.07,16.61c1.68,7.52,1.76,15.35-4.48,20.87
	c-6.14,5.43-12.64,10.74-22.01,9.94c-4.97-0.42-10.08,4.22-11.45,8.9c-0.26,0.89-0.35,2.11,0.45,2.03c2.9-0.29,4.84,2.67,7.83,1.95
	c7.82-1.89,15.84-1.59,23.8-2c5.34-0.27,9.69-2.11,10.97-8.14c0.27-1.27,0.63-2.94,2.59-3.58c0.91,1.3,0.73,2.81,0.85,4.23
	c0.1,1.19,0.25,2.45,1.61,2.76c1.12,0.25,1.69-0.82,2.38-1.53c2.72-2.76,3.89-6.1,3.84-9.93c-0.02-1.81-0.26-3.69,1.36-5.09
	c3.41-2.94,3.02-6.74,2.37-10.6c-0.82-4.88-1.66-9.64-0.86-14.76c1.42-9.08,3.43-18.28-3.27-26.74c-2-2.52-1-6.58,3.42-7.74
	c4.83-1.27,9.55-2.83,13.86-5.4c1.9-1.13,2.74-0.93,3.36,1.46c1.29,4.97,3,9.82,4.5,14.73c0.59,1.91,1.09,3.8,2.92,5.03
	c10.25,6.86,18.71,16.05,28.84,22.94c8.02,5.45,8.16,12.4,6.89,20.25c-1.33,8.23-4.25,11.01-12.62,12.24
	c-4.99,0.73-8.02,3.64-10.05,7.93c-0.33,0.7-0.66,1.74-0.37,2.33c0.52,1.06,1.63,0.71,2.63,0.41c1.45-0.44,3.37-1.93,4.1,0.55
	c0.87,2.96,2.82,2.41,4.72,1.88c4.55-1.28,8.96-1.41,13.66-0.29c3.69,0.88,9.18,0.71,10.7-2.01c2.27-4.05,5.56-8.56,4.58-13.84
	C710.15,258.14,711.03,251.34,713.47,243.45z"/>
<path class="st0" d="M978.51,251.23c10.68-17.5,18.69-35.39,21.57-55.65c-1.88,0.45-1.53,1.46-1.66,2.17
	c-3.29,17.47-9.77,33.7-18.83,48.97c-1.63,2.75-2.92,3.79-6.08,1.88c-4.39-2.66-9.1-4.81-13.73-7.06
	c-10.85-5.28-20.85-12.64-33.26-14.12c-5.69-0.68-8.9-3.92-10.96-8.83c-2.25-5.35-4.71-10.63-6.66-16.08
	c-3.44-9.64-10.93-15.4-20.15-16.64c-16.56-2.23-30.8,4.71-43.26,15.22c-2.8,2.36-3.01,5.9-1.09,9.12c1.95,3.28,4.53,5.64,8.86,5.15
	c11.29-1.27,10.93-1.05,15.81,9.37c3.35,7.13,8.69,13.14,12.15,20.42c2.15,4.53,5.11,8.37,4.34,13.61
	c-1.56,10.59,2.93,18.69,10.36,25.61c2.19,2.04,4.45,3.99,6.66,6c0.57,0.52,1.89,0.84,1.49,1.68c-1.05,2.2-3.44,2.98-5.29,4.34
	c-1.85,1.36-2.62-0.24-3.72-1.13c-1.04-0.83-1.55-3.21-3.4-1.84c-1.25,0.93-0.2,2.54,0.43,3.6c2.27,3.79,1.14,6.69-2.34,8.76
	c-4.3,2.55-8.32,1.71-10.96-1.99c-0.72-1-0.89-3.03-2.58-2.41c-1.96,0.72-0.99,2.73-0.55,3.93c2.17,5.91,1.12,11.21-1.73,16.7
	c-1.38,2.67-5.36,6.88,1.39,8.8c0.29,0.08,0.3,1.21,0.41,1.86c0.68,3.87,2.53,3.18,4.74,1.23c2.74-2.41,5.72-6.99,8.21-6.74
	c5,0.49,7.29-2.77,10.61-4.77c0.44,0.56,0.79,0.91,1.02,1.34c0.8,1.49,0.6,4.26,2.9,3.95c1.9-0.26,1.33-2.8,1.57-4.34
	c1-6.45,3.55-11.58,10.1-14.22c2.99-1.2,4.68-0.7,6.81,1.64c8.73,9.57,17.02,19.47,23.78,30.53c2.87,4.7,8,8.26,7.97,14.5
	c-0.03,5.76,1.52,11.05,3.66,16.35c4.04,9.97,8.69,19.74,10.8,30.41c0.81,4.08-0.37,7.14-3.85,9.41c-3.2,2.09-6.32,4.3-9.51,6.41
	c-3.53,2.33-4.8,5.76-5.04,9.78c-0.19,3.19,0.64,4.62,3.87,2.55c2.05-1.31,4.13-2.6,6.15-3.87c1.76,1.8-1.1,5.43,2.65,5.82
	c3.02,0.32,6.1-0.01,8.1-2.74c1.34-1.83,3.08-2.94,5.02-3.95c4.12-2.14,6.67-5.32,6.71-10.21c0.04-4.82,0.22-9.62,3.25-13.79
	c1.04-1.44,1.06-3.33,0.15-4.77c-4.53-7.12-2.53-15.18-3.52-22.81c-0.17-1.29-0.16-2.85,1.46-2.2c6.26,2.5,13.62,3.06,18.52,7.97
	c8.45,8.47,16.23,17.59,24.33,26.41c3.11,3.38,3.46,7.06,1.26,10.98c-1.29,2.31-2.88,4.46-4.2,6.75c-1.65,2.85-3.73,5.66-2.43,9.26
	c0.88,2.45,1.53,5.06,5.01,1.86c1.34-1.24,4.76-3.95,5.6,1.34c0.32,2.02,1.95,1.27,3.05,0.4c1.3-1.02,2.42-2.3,3.77-3.24
	c6.6-4.6,10.74-10.11,8.27-18.81c-0.89-3.15-1.31-6.63-1.03-9.87c0.57-6.49-1.38-11.65-6.19-16c-1.52-1.38-3.62-3.37-2.6-5.52
	c1.01-2.13,3.78-1.6,5.91-1.52c10.2,0.4,19.99,3.11,29.87,5.34c18.8,4.25,36.89,11.15,55.7,15.25c27.64,6.03,55.77,6.54,83.92,6.07
	c9.3-0.16,18.63-0.37,27.76-2.46c2.2-0.5,5.21-1.26,5.06-3.99c-0.17-2.98-3.13-3.4-5.73-3.61c-12.76-1.02-25.55-1.86-38.2-3.86
	c-16.92-2.66-33.8-5.58-48.74-14.76c-12.74-7.83-25.52-15.61-38.09-23.71c-10.74-6.93-21.88-13.35-30.9-22.66
	c-12.5-12.9-24.89-25.91-37.68-38.51c-7.07-6.97-14.26-13.85-23.04-18.94C1007.97,267.89,994.59,257.33,978.51,251.23z"/>
<path d="M72.74,343.25c2.6-6.4,2.54-11.71-0.97-17.19c-3.02-4.72-5.26-9.97-6.91-15.4c-0.29-0.96-0.81-1.93,0.33-2.63
	c1.08-0.67,1.92,0.02,2.57,0.78c2.03,2.35,4.01,4.74,6.15,7.28c0.95-2.52-0.5-4.26-0.78-6.18c-0.2-1.38-1.74-3.19,0.06-3.98
	c2.05-0.9,2.58,1.51,3.32,2.8c2.08,3.6,4.36,7.42,4.58,11.46c0.46,8.56,6.12,14,10.48,20.24c1.62-0.26,1.51-1.43,1.53-2.3
	c0.19-9.29,1.13-18.61-1.02-27.81c-0.25-1.06-1.26-2.34,0.25-3.06c1.81-0.85,2.25,0.91,2.79,2c4.37,8.74,6.34,18.11,7.06,27.79
	c0.25,3.35,0.25,3.35,4.36,2.62c-3.2-5.75-0.24-11.17,0.96-16.64c0.82-3.71,4.27-2.47,6.2-1.66c4.01,1.68,5.33-0.13,6.37-3.45
	c1.29-4.11,3.06-8.09,4.13-12.25c1-3.91,2.98-5.67,7.04-5.07c4.76,0.71,7.58-0.91,7.7-6.2c0.05-2.46,1.11-4.92,1.06-7.37
	c-0.1-4.73,2.35-5.44,6.3-4.94c3.46,0.43,7.03,0.08,10.44,0.7c3.79,0.69,3.93-1.09,3.3-3.8c-1.13-4.86-2.08-9.73-2-14.76
	c0.03-2.27,0.66-3.93,3.06-4.41c5.86-1.17,11.7-2.66,17.56,0.28c1.63,0.82,3.86,2.98,5.21,1.44c1.74-1.98,2.68-4.85,1.72-7.89
	c-0.94-3-1.78-6.06-2.26-9.16c-0.94-6.13,0.62-7.48,6.44-5.43c7.99,2.8,15.96,5.69,23.77,8.93c3.62,1.5,5.09,1.41,5.89-2.94
	c1.26-6.83,3.31-13.52,5.03-20.27c0.95-3.75,2.54-4.4,5.91-1.95c5.1,3.69,10.65,6.78,15.89,10.28c2.34,1.56,3.7,1.26,5.11-1.2
	c2.15-3.74,4.85-7.17,6.89-10.96c2.38-4.42,4.78-3.91,8.1-1.03c8.27,7.18,17.12,13.82,20.85,24.8c0.29,0.86,0.93,1.61,1.6,2.75
	c3.81-5.51,7.25-10.75,10.97-15.79c4.16-5.62,5.56-5.56,9.23,0.35c3.5,5.62,6.75,11.4,10.45,17.7c2.81-2.89,5.3-5.67,8.03-8.2
	c3.9-3.6,5.52-3.27,7.74,1.38c1.65,3.44,3.42,6.86,4.62,10.45c1.09,3.26,2.57,3.05,5.07,1.66c19.21-10.65,29.91-27.24,34.05-48.42
	c0.62-3.17,0.98-6.39,1.8-9.54c1.29,4.73-0.1,9.33-1.19,13.76c-4.96,20.15-15.84,36.01-34.69,45.67c-2.54,1.3-2.65,2.6-1.72,5.02
	c3.11,8,5.07,16.1-0.32,24.34c3.11-0.02,4.73-1.46,6.17-3.37c2.89-3.85,5.72-7.77,8.86-11.41c3.33-3.87,4.59-3.63,6.44,1.01
	c1.41,3.54,2.67,7.16,3.62,10.84c0.65,2.5,1.59,2.96,4.16,2.52c11.3-1.95,11.37-1.83,9.82,9.81c-0.59,4.43-1.65,8.81-2.19,13.25
	c-0.66,5.46-5,8-8.5,11.17c-6.53,5.93-6.58,5.87,1.77,11.24c-0.18-10.44,6.8-16.14,13.58-21.96c4.15-3.57,5.66-3.26,6.18,1.97
	c0.38,3.89,1.52,4.95,5.22,3.56c3.11-1.17,3.1,0.95,3.03,3.21c-0.21,7.3-3.06,13.28-8.03,18.65c-4.96,5.36-4.7,5.59,3.11,8.57
	c-1.32-6.39,1.92-10.85,5.74-15.03c0.95-1.04,1.52-3.09,3.27-2.58c1.65,0.48,1.14,2.5,1.51,3.86c0.22,0.79,0.32,1.62,0.47,2.48
	c5.32-3.37,5.49-3.24,5.93,2.93c0.22,3.04,0.08,5.95-1.2,8.76c-0.44,0.98-1.41,2.04-0.28,3.14c0.29,0.28,0.95,0.39,1.38,0.3
	c1.9-0.37,1.46-1.97,1.48-3.19c0.05-3.07,0.95-5.87,2.37-8.55c0.47-0.89,0.95-1.83,2.14-1.8c1.25,0.03,1.57,1.11,1.88,2.02
	c1.23,3.62,2.34,7.27,0.01,11.24c10.58-0.8,20.14,2.48,29.9,4.09c4.19,0.69,9.14,2.19,9.27,8.1c0.08,3.74-4.65,7.05-10.58,8.27
	c-20.68,4.25-41.25,8.99-62.07,12.55c-1.46,0.25-2.87,0.82-4.32,1.16c-2.27,0.53-3.18,1.45-1.58,3.72
	c4.01,5.68,7.14,12.03,13.26,15.99c5.54,3.59,5.86,9.45,5.76,15.09c-0.09,4.82,0.91,8.77,4.78,11.92c1.37,1.11,2.24,2.86,3.27,4.36
	c1.24,1.82,2.54,3.88,1,5.94c-1.54,2.08-3.7,0-5.41,0.2c-7.65,0.89-13.55-3.35-19.96-6.11c-3.7-1.59-6.26-3.53-3.55-8.32
	c1.71-3.02,0.34-6.41-2.29-8.5c-4.63-3.7-8.67-8.13-14.63-10.16c-5.49-1.87-8.65-6.45-10.88-11.7c-0.84-1.96-1.15-4.81-4.57-4.09
	c-2.94,0.62-5.32,1.8-6.2,4.99c-0.81,2.92-0.98,5.88-0.98,8.88c0,5.64,0.62,11.29-0.33,16.93c-0.42,2.47,1.08,3.92,2.91,5.33
	c4.6,3.57,10.19,5.67,14.47,9.7c1.4,1.32,3.71,2.47,2.79,4.78c-0.89,2.24-3.42,2.07-5.26,1.61c-7.37-1.83-14.9,0.97-22.31-1.06
	c-3.13-0.85-4.87-2.42-6.1-5.15c-5.23-11.63-10.79-23.15-12.68-35.94c-0.27-1.82-1.28-2.54-2.87-2.91
	c-8.6-1.98-17.25-3.52-26.14-3.34c-2.21,0.04-3.22,0.56-3.51,2.98c-0.83,6.96-1.25,13.94-0.75,20.9c0.5,6.99,5.6,11.02,10.89,14.63
	c3.02,2.06,6.24,3.83,8.83,6.47c0.6,0.61,1.2,1.22,0.94,2.14c-0.31,1.06-1.28,0.88-2.06,0.88c-8.31,0.05-16.63,0.1-24.94,0.11
	c-2.74,0-4.73-1.57-6.26-3.59c-3.54-4.65-6.69-9.47-6.79-15.69c-0.08-4.41-1.7-8.37-4.26-12.02c-3.44-4.9-6.58-9.99-7.63-16.05
	c-0.32-1.83-1.26-2.98-3.4-2.77c-0.97,0.09-1.99-0.11-2.97-0.28c-5.49-0.94-10.58-1.47-13.47,5.12c-1.22,2.78-4.54,4.23-7.57,4.08
	c-4.26-0.21-6.72,2.02-9.11,4.9c-1.49,1.78-3.13,3.45-4.82,5.04c-6.34,5.98-6.02,15.27,0.76,21.02c2.38,2.01,5.24,3.55,5.95,7.06
	c0.5,2.45-0.13,3.6-2.71,3.11c-5.26-1.01-10.43-2.66-15.93-1.94c-0.88,0.11-1.91-0.48-2.8-0.9c-7.67-3.61-12.61-21.81-7.57-28.49
	c3.65-4.83,6.11-10.38,8.34-15.76c3.22-7.77,8.56-13.77,13.55-20.12c1.7-2.17,1.73-3.42-0.72-4.41c-4.8-1.95-7.57-5.89-9.94-10.1
	c-1.32-2.35-2.73-3.22-5.5-2.92c-29.49,3.18-59.04,3.9-88.69,2.83c-23.47-0.84-44.86-8.49-65.79-18.12
	c-0.87-0.4-2.14-0.81-1.87-1.97c0.37-1.58,1.74-1.04,2.89-0.89c5.27,0.72,10.53,1.47,15.82,2.05c1.18,0.13,2.85,1.09,3.61-0.4
	c0.65-1.27-0.73-2.42-1.28-3.57c-2.74-5.67-5.55-11.31-8.27-17c-0.5-1.04-0.88-2.2-0.98-3.33c-0.13-1.56-0.95-3.66,1.02-4.44
	c2.11-0.83,2.81,1.31,3.53,2.69c2.86,5.44,5.49,11,9.79,15.54C65.39,335.31,68.86,339.08,72.74,343.25z M387.15,332.17
	c5.13-6.39,3.24-13.51,2.57-20.82c-7.45,4.54-10.03,8.48-10.01,14.88c2.02-1.33,1.44-4.56,4.47-5.85c-1.54,3.81-2.93,7.12-4.2,10.48
	c-0.28,0.74-1.85,1.87,0.54,2.38c0.99,0.22,1.57,1.98,2.97,0.38c0.46-0.53,1.5-0.57,2.27-0.83c-0.77,0.85-1.58,1.66-2.28,2.57
	c-0.7,0.91-2.53,1.71-0.62,3.1c1.03,0.75,2.4,1.95,3.48,0.52c4.14-5.51,11.16-9.27,10.81-17.54c-0.05-1.16,1-3-1.22-3.02
	c-1.54-0.01-3.52,0.13-3.88,2.27c-0.24,1.46-0.22,2.98-0.18,4.46C391.93,328.62,391,331.36,387.15,332.17z M123.47,326.69
	c-2.59-0.5-5.3-0.67-7.73-1.59c-4.16-1.57-6.34-0.75-6.47,3.98c-0.04,1.3-0.65,2.57-0.79,3.88c-0.44,4.11,1.29,5.78,5.23,4.58
	c3.95-1.2,7.72-3,11.62-4.4c3.61-1.3,3.44-2.88,0.56-4.84c0.94,0.21,1.86,0.51,2.81,0.62c1.2,0.14,2.8,1.09,3.48-0.27
	c0.49-0.97,0-2.5-1.2-3.33c3.5,3.4,6.92,2.81,10.28-0.21l-0.12,0.11c1.68-0.67,3.43-1.2,5.01-2.04c2.22-1.18,5.32-1.46,5.82-4.67
	c0.48-3.09,1.28-6.29,0.87-9.29c-0.33-2.44-3.92-1.92-5.56-3.53c-0.21-0.21-0.24-0.59-0.36-0.89c7.89,1.78,8.09,2.08,6.99,10.33
	c-0.17,1.24-1.09,2.76,0.21,3.65c1.05,0.71,2.12-0.51,3.16-0.97c7.01-3.11,13.52-7.11,20.16-11.43c0.3-1.16-2.29-1.44-1.8-3.1
	c2.09-0.08,2.87,2.96,4.96,1.85c3.49-1.86,7.27-3.5,10.07-6.15c1.57-1.48-1.45-4.03-1.56-6.32c-0.02-0.48,0.08-0.97,0.13-1.46
	l-0.11,0.08c1.62,0.14,1.38,1.65,1.84,2.6c0.74,1.53,0.61,4.11,3.11,3.68c2.91-0.5,1.27-2.87,1.17-4.46
	c-0.39-6.59-3.23-12.61-4.67-18.98c3.49,5.39,4.74,11.51,6.23,17.58c0.31,1.28-0.63,3.91,2.08,3.59c1.92-0.23,4.02-1.05,4.42-3.41
	c0.41-2.44,0.29-4.97,0.8-7.39c1.22-5.83,1.44-11.08-5.81-13.14c7.51,0.93,9.12,2.29,10.81,8.88c0.57,2.24,1.47,4.4,1.99,6.64
	c0.55,2.42,1.9,2.77,4.03,2.12c2.28-0.7,2.03-2.03,1.42-3.87c-0.58-1.75-1.99-3.48-0.92-5.63c1.85,1.63,1.46,4.06,2.45,5.96
	c0.79,1.51,1.74,1.94,3.16,1.52c1.54-0.46,3.65-0.24,4.37-1.85c0.61-1.37-1.1-2.26-2.02-3.09c-2.2-1.99-4.56-3.81-6.85-5.69
	c4.17,1.13,7.28,3.78,10.03,6.97c0.82,0.95,8.34,0.93,8.73-0.07c0.25-0.65,0.06-1.61-0.22-2.32c-1.06-2.6-2.27-5.14-3.36-7.73
	c-1.82-4.31-3.97-8.52-4.17-13.34c2.88,7.6,6.52,14.81,10.15,22.05c0.01-1.2-0.29-2.29-0.46-3.41c-0.9-5.86-4.11-11.16-4.26-17.21
	l-0.1,0.08c3.63,5.64,4.23,12.3,6.26,18.48c0.5,1.53,0.58,3.27,3.03,3.12c2.67-0.17,2.64-1.88,2.75-3.79
	c0.35-6.25,0.79-12.49,1.21-18.93c1.07,0.81,0.94,1.67,0.94,2.46c0,5.48,0.11,10.96-0.68,16.41c-0.15,1.01-0.79,2.65,0.94,2.81
	c1.61,0.15,1.41-1.5,1.59-2.58c0.32-1.96,0.55-3.94,0.92-5.9c1.27-6.64,0.93-13.4,1.3-20.11c1.91,9.38,0.28,18.65-0.45,27.99
	c3.31-8.29,3.28-17.34,5.8-25.82c-0.15,7.49-1.36,14.8-2.83,22.08c-0.3,1.49-1.7,3.67,0.48,4.23c2.18,0.57,2.16-2.17,2.55-3.52
	c1.62-5.59,2.94-11.26,4.38-16.91c0.53,7.13-2.79,13.55-3.45,20.64c2.64-0.51,3.2-2.28,3.88-3.96c1.5-3.68,2.79-7.48,4.57-11.02
	c1.83-3.61,2.47-7.1,0.77-10.87c3.67,1.98,3.08,5.06,1.91,8.09c-1.98,5.09-4.13,10.12-6.25,15.15c-0.91,2.16-0.64,3.41,2.04,3.68
	c2.95,0.29,4.62-0.22,4.62-3.78c0.01-3.96-0.87-8.1,1.8-11.87c0,3.29,0,6.58,0,9.87c2.4-11.39,2.52-22.9,3.29-34.39
	c0.64,5.23,0.88,10.46,0.59,15.66c-0.41,7.44-1.17,14.87-1.86,22.29c-0.32,3.38,2.02,3.43,4.16,3.27c3.1-0.24,1.31-2.26,1.02-3.62
	c-0.52-2.43-0.93-4.91-1.81-7.22c-1.45-3.8-0.49-6.7,2.44-9.33c2.98-2.68,5.29-5.93,7.15-9.49c0.81-1.54,1.09-2.81,0.39-4.64
	c-4.37-11.36-12.27-19.82-21.65-27.19c-2.23-1.75-3.2-1.28-4.53,0.88c-2.52,4.08-5.21,8.07-8.02,11.96c-1,1.38-0.9,2.26,0.1,3.44
	c1.7,2,3.3,4.08,4.94,6.12c-8.7-8.14-19.6-12.96-29.69-20.2c-1.58,6.21-2.63,11.88-4.49,17.28c-2.32,6.76-0.96,14.21-4.28,20.71
	c0.03-0.99-0.11-2.03,0.13-2.97c1.31-5.09-1.09-7.27-5.75-8.79c-7.38-2.4-14.51-5.53-21.8-8.24c-1.46-0.54-3.2-2.09-4.57-0.9
	c-1.34,1.17-0.25,3.08,0.12,4.68c1.19,5.23,3.57,10.41,0.26,15.77c-1.3,2.11,0.61,2.76,2.02,3.66c3.01,1.91,6.91,2.32,9.17,5.46
	c-4.06-0.58-7.13-3.57-10.92-4.63c-6.58-1.83-12.39-6.46-19.83-5.23c-7.17,1.19-8.29,1.53-6.07,8.46
	c3.22,10.05,0.39,19.48-0.82,29.13c-0.38,3.05-1.17,5.81,2.45,7.65c-3.63-0.27-5.51-1.3-4.32-5.28c0.89-2.98,0.47-6.35,1.37-9.32
	c1.63-5.41-1-6.75-5.58-6.76c-0.67,0-1.33-0.04-1.99-0.08c-8.7-0.54-8.22-0.4-10.78,7.8c-1.86,5.96-0.48,9.46,5.12,11.68
	c-1,0.58-2.03,0.29-2.78-0.29c-3.91-3.02-8.22-1.1-12.32-0.98c-6.39,0.19-5.1,6.15-6.79,9.78c-0.66,1.42-2.28,2.97-0.37,4.87
	c1.95,1.94,3.62,4.14,5.39,6.2c-1.56-1.14-3.16-2.25-4.68-3.44c-0.73-0.57-1.3-1.99-2.23-1.45c-0.82,0.48-1.34,1.76-1.64,2.79
	C121.14,324.26,122.22,325.55,123.47,326.69z M348.71,310.66l-0.12-0.08c0.77,1.09,2.25-0.97,2.4,0.15
	c0.78,5.69,3.62,2.32,5.73,1.34c2.21-1.02,3.89-3.13,6.57-3.17c-0.66,2.25-3.13,2.23-4.51,3.59c-1.2,1.18-3.57,1.4-3.31,3.74
	c0.13,1.14,7.67,6.02,8.33,5.46c4.5-3.78,10.56-6.5,12.27-12.45c1.77-6.13,2.88-12.55,3.14-19.03c0.08-2.12-0.25-3.02-2.68-2.68
	c-9.44,1.29-9.44,1.23-9.45,10.68c0,1.99,0.1,3.99-0.16,5.95c-0.3,2.28-0.73,4.68-3.8,4.92c0.47-1.69,2.15-2.7,2.15-4.79
	c-0.01-5.62,0.85-11.29,0.37-16.85c-0.43-4.99-2.15-9.88-4.88-14.95c-2.07,2.6-3.86,4.72-5.51,6.94
	c-3.35,4.51-6.32,9.41-12.65,10.34c-1.35,0.2-1.78,1.45-2.43,2.71c-2.15,4.19,1.8,7.84,0.94,11.95c1.58-4.2,3.15-8.4,4.73-12.6
	c0.22,2.95-0.57,5.55-1.47,8.11C341.86,307.09,341.84,307.09,348.71,310.66z M321.86,295.9l-0.02-0.15
	c2.89,2.01,5.56,4.88,8.79,0.11c2.78-4.1,6.14-7.79,9.19-11.7c2.19-2.81,3.49-5.86,3.22-9.6c-0.79-11.06-6.6-20.32-10.58-30.24
	c-0.45-1.11-1.48-1.7-2.34-0.79c-3.4,3.61-8.47,6-8.96,11.82c-2.63-0.67-3.97-2.7-5.19-4.89c-2.59-4.63-5.17-9.27-7.86-13.84
	c-3.71-6.31-3.84-6.34-8.1-0.12c-5.68,8.3-10.3,17.56-17.09,24.81c-5.49,5.86-5.95,11.01-3.55,17.6c0.34,0.93,0.8,1.89,0.84,2.85
	c0.14,3.97,3.45,4.1,5.73,3.81c2.09-0.27,1.11-3.03,0.95-4.59c-0.56-5.66-1.29-11.29-1.23-17.55c1.99,1.78,1.37,3.53,1.51,5.07
	c0.47,5.12,0.85,10.25,1.29,15.38c0.14,1.58,0.55,3.03,2.52,3.1c2.41,0.09,1.94-1.83,2.05-3.19c0.67-7.78,1.13-15.56,0.28-23.36
	c-0.2-1.8-0.64-3.67,0.48-6.35c0.35,1.52,0.54,2.13,0.62,2.75c1.11,8.94,1.11,17.88,0.1,26.83c-0.19,1.66-1.17,3.77,1.63,4.42
	c3.33,0.76,3.27-2.1,3.23-3.68c-0.12-4.09,0.13-8.13,0.72-12.13c0.89-6.02,0.88-12.1,1.49-18.16c1.37,5.11,0.28,10.3,0.75,16.42
	c2.33-8.27,2.37-15.88,3.91-23.27c0.98,1.39,0.66,2.78,0.54,4.22c-1,11.42-3,22.67-5.85,33.77c-0.45,1.73-1.63,3.75,1.12,4.44
	c2.76,0.69,2.61-1.82,3.15-3.43c1.92-5.66,3.41-11.42,4.01-17.39c0.43-4.22,0.98-8.43,1.47-12.65c0.84,10.79-0.61,21.22-4.35,31.2
	c-1.26,3.36-0.35,4.11,2.77,3.73l0.05,0.04c2.73,2.41,5.43,2.25,8.1-0.08c-1.12,1.21-1.84,2.5,0.03,3.58
	c1.62,0.94,2.88,0.19,3.52-1.39c0.78-1.92,2.49-3.44,2.51-5.94c-1.41,0.49-2.73,0.95-4.05,1.41c2.13-2.6,4.62-4.71,7.92-5.69
	C325.4,287.37,323.63,291.63,321.86,295.9z M353.24,387.92c2.24,6.45,4.26,13.32,11.35,16.05c6.61,2.54,11.5,7.23,16.55,11.71
	c1.91,1.7,3.53,2.78,6.37,2.57c-2.86,0.28-2.73,2.02-2.82,3.96c-0.13,2.86,2.34,1.67,3.48,2.31c1.28,0.72,3.1,0.47,4.69,0.64
	c-1.55,0.48-3.14,0.84-4.48,0.41c-2.53-0.82-4.43-1.06-5.4,2.08c-0.98,3.17,1.89,3.06,3.31,3.92c6.28,3.79,13.16,5.57,20.63,5.24
	c-0.85-1.34-1.5-3.23-2.82-4.31c-5.75-4.69-7.17-10.78-6.73-17.8c0.3-4.84-2.3-8.08-5.93-11.32c-6.78-6.04-13.03-12.76-14.44-22.41
	c7.22-1.55,14.38-3.56,21.68-4.5c5.14-0.67,8.36-2.36,8.58-8.22c1.72,2.48-0.29,4.45-0.1,6.83c3.54-1.19,7.3-0.56,9.83-2.68
	c2.72-2.29,0.2-6.21,1.83-10.12c0.19,3.99,0.33,7.05,0.46,9.74c7.27-0.7,4.24-6.8,5.56-10.54c3.88,2.31-2.59,7.35,2.02,8.09
	c3.08,0.5,6.93,0.14,10.28-0.56c5.35-1.12,10.58-2.86,16.85-4.62c-5.55-2.7-10.28-0.16-14.81-0.81c4.74-1.07,9.45-2.08,14.27-1.1
	c1.43,0.29,2.87,0.07,3.42-1.22c0.67-1.59-0.41-2.93-1.75-3.73c-1.41-0.84-2.91-1.76-4.49-2.06c-5.2-0.99-10.45-1.71-15.68-2.54
	l0.18,0.16c-4.2-1.89-8.56-1.96-13.08-1.54c-9.88,0.9-19.54,0-28.76-4.06c-10.61-4.67-19.89-11.15-28.42-19.01
	c-15.13-13.95-31.71-25.7-51.71-31.93c-11.56-3.6-23.22-6.57-35.12-8.85c-26.75-5.12-52.17-1.45-76.63,10.17
	c-17.56,8.34-33.83,19.09-51.54,27.16c-16.73,7.62-32.83,16.82-51.45,19.47c-2.89,0.41-5.73,0.79-7.83,3.52
	c-1.31,1.7-3.69,1.5-5.48,0.2c-5-3.65-9.8-3.04-14.88-0.01c-2.46,1.46-5.72,1.91-7.89-0.34c-2.93-3.03-6.26-2.52-9.75-2.29
	c5.93,2.95,11.94,5.68,18.31,7.47c18.28,5.13,37.12,5.63,55.87,5.69c22.1,0.07,44.21-0.92,66.22-3.4c1.7-0.19,4.02-1.88,5.48,1.34
	c2.49,5.51,6.06,10.17,11.82,12.93c3.12,1.5,3.57,3.85,1.05,6.82c-5.89,6.95-11.68,13.96-15.07,22.65c-1.68,4.3-3.53,8.8-6.4,12.31
	c-3.46,4.23-3.62,8.19-1.89,12.85c0.98,2.64,1.62,5.41,2.67,8.01c0.88,2.16,2.14,4.25,4.46,5.15c1.63,0.63,3.36,1.61,5.18,0.34
	c1.86-1.3,0.16-2.96,0.41-5.32c2.47,5.19,6.16,7.14,11.33,6.99c-1.31-2.58-3.79-3.76-5.64-5.53c-5.97-5.73-7.03-17.21-2.45-22.15
	c2.74-2.95,8.46-4.14,6.79-10.12c-0.01-0.03,0.43-0.21,0.67-0.29c2.83-0.91,2.81-0.89,0.61-3.19c-0.72-0.75-1.65-1.48-1.36-2.98
	c3.96,4.1,9.01,5.17,13.99,3.12c6.02-2.48,7.9-8.23,3.77-13.43c5.25,3.69,10.34,4.44,16.14,3.74c3.26-0.39,7.65-0.11,8.13,5.56
	c0.33,3.9,1.92,7.72,4.29,11.02c4.61,6.43,7.88,13.19,8.34,21.43c0.35,6.37,6.39,13.29,10.77,13.49c6.38,0.29,12.78,0.07,19.17,0.07
	c-1.02-1.95-2.06-2.76-3.18-3.41c-10.17-5.86-15.47-14.19-13.83-26.31c0.62-4.59,0.63-9.27,1.06-13.89
	c0.23-2.45,0.69-4.89,3.15-6.28l-0.1-0.1c0.29,0.77,0.55,1.75,1.54,1.7c10.33-0.47,20.34,1.44,30.28,3.97
	c0.95,0.24,2.37,0.26,2.2-1.13c-0.57-4.61,3.87-10.14-2.44-13.76c-0.53-0.3-0.87-0.99-0.22-1.64c1.38,1.07,2.14,2.92,4.84,3.44
	c-2.39-2.94-0.85-4.34,2.28-5.81c-3.05,7.86-2.52,15.56-2.77,23.2c-0.07,2.03,0.18,3.9,0.57,5.86c1.92,9.52,6.36,18.02,10.1,26.85
	c2.14,5.05,4.7,7.14,9.73,7.12c4.37-0.02,8.73,0,13.05,0c-1.78-6.03-6.47-8.25-10.45-11.13c-2.19-1.58-3.87-3.56-3.34-6.22
	c1.32-6.62,0.29-13.25,0.5-19.86C338.53,391.34,341.61,388.23,353.24,387.92z M403.47,334.14c-3.71,2.96-5.99,8.69-4.02,11.51
	c1.58,2.27,5.1,3.03,7.05,1.81c3.13-1.97,3.9-5.69,3.21-9.6C404.63,340.75,404.63,340.75,403.47,334.14z M57.04,330.7
	c-0.21,0.12-0.42,0.24-0.63,0.37c2.33,4.46,4.7,8.91,6.99,13.39c1.23,2.41,3.55,2.27,5.06,1.28c2.25-1.47-0.11-2.81-1.03-3.84
	C64.04,338.09,60.51,334.42,57.04,330.7z M82.7,333.38c-1.08,3.53,1.75,11.35,4.19,12.44c0.99,0.44,1.88,0.2,2.66-0.6
	c0.92-0.94,0.51-1.75-0.12-2.6C87.24,339.62,85.06,336.63,82.7,333.38z M206.71,278.12c-1.65,3.72-1.35,7.04-1.36,10.28
	c0,1.16-0.9,2.82,0.8,3.39c0.75,0.25,1.85-0.37,2.74-0.73c1.74-0.7,1.21-2.11,0.85-3.33C208.87,284.76,207.89,281.82,206.71,278.12z
	 M95.97,323.74c0,4.96-0.01,9.92,0.01,14.88c0,1.09-0.46,2.59,1.25,2.72c1.89,0.14,1.93-1.37,1.91-2.75
	C99.09,333.48,98.53,328.45,95.97,323.74z M336.68,294.54c-0.24-0.16-0.49-0.31-0.73-0.47c-1.11,1.39-2.21,2.79-3.33,4.16
	c-0.65,0.8-1.25,1.64-0.4,2.59c0.41,0.46,1.06,0.94,1.64,0.98c1.49,0.11,1.18-1.27,1.43-2.1C335.81,298,336.22,296.27,336.68,294.54
	z"/>
<path d="M713.47,243.45c-2.44,7.89-3.32,14.7-2.01,21.76c0.97,5.28-2.31,9.79-4.58,13.84c-1.53,2.73-7.01,2.9-10.7,2.01
	c-4.7-1.12-9.11-0.99-13.66,0.29c-1.89,0.53-3.84,1.08-4.72-1.88c-0.73-2.48-2.66-0.99-4.1-0.55c-0.99,0.3-2.1,0.64-2.63-0.41
	c-0.29-0.58,0.04-1.62,0.37-2.33c2.03-4.29,5.06-7.19,10.05-7.93c8.37-1.23,11.29-4.01,12.62-12.24c1.27-7.85,1.13-14.8-6.89-20.25
	c-10.13-6.89-18.58-16.08-28.84-22.94c-1.83-1.23-2.33-3.12-2.92-5.03c-1.51-4.91-3.22-9.77-4.5-14.73
	c-0.62-2.39-1.46-2.6-3.36-1.46c-4.31,2.57-9.04,4.13-13.86,5.4c-4.42,1.17-5.42,5.22-3.42,7.74c6.71,8.46,4.7,17.66,3.27,26.74
	c-0.8,5.12,0.04,9.88,0.86,14.76c0.65,3.86,1.04,7.66-2.37,10.6c-1.62,1.4-1.38,3.28-1.36,5.09c0.05,3.83-1.12,7.17-3.84,9.93
	c-0.69,0.7-1.26,1.78-2.38,1.53c-1.35-0.31-1.5-1.57-1.61-2.76c-0.12-1.42,0.06-2.93-0.85-4.23c-1.97,0.64-2.32,2.31-2.59,3.58
	c-1.28,6.04-5.63,7.87-10.97,8.14c-7.96,0.4-15.98,0.11-23.8,2c-2.99,0.72-4.93-2.24-7.83-1.95c-0.8,0.08-0.71-1.14-0.45-2.03
	c1.37-4.69,6.48-9.33,11.45-8.9c9.37,0.8,15.87-4.51,22.01-9.94c6.25-5.53,6.16-13.35,4.48-20.87c-1.26-5.64-3.03-11.2-5.07-16.61
	c-2.64-7.01-2.23-14.65-4.95-21.64c-0.99-2.56,0.53-5.21,1.77-7.55c4.49-8.51,9.08-16.97,13.62-25.45c0.95-1.76,2.11-3.35-0.58-4.91
	c-10.65-6.19-18.92-15.06-27-24.15c-2.14-2.41-3.83-4.74-7.83-1.1c-3.77,3.44-9.38,1.22-13.97,0.2c-4.42-0.98-7.63-0.09-9.87,3.57
	c-1.68,2.76-4.27,2.41-5.94,1.31c-2.23-1.47-0.22-3.58,0.74-5.19c2.63-4.42,5.81-8.18,11.57-8.26c1.16-0.02,1.66-0.61,2.16-1.63
	c1.76-3.6,3.69-6.76,8.19-8c2.11-0.58,3.38-3.68,1.45-6.22c-4.02-5.29-7.73-10.76-11.22-16.43c-1.96-3.19-5.82-2.06-8.58-0.74
	c-4.59,2.2-8.76,2.81-13.03-0.53c-1.26-0.98-2.89-0.29-4.37-0.21c-5.45,0.29-9.7-1.66-12.36-6.64c-2.92-5.46-1.38-8.94,4.68-10.65
	c1.88-0.53,3.64-1.44,5.51-2.03c0.95-0.3,2.12-0.26,1.63-1.7c-0.27-0.79-0.98-1.35-1.92-1.3c-0.49,0.02-0.97,0.23-1.46,0.31
	c-4.35,0.69-8.12,1.3-12.31-2.3c-4.44-3.81-8.69-9.55-7.76-15.1c1.44-8.59,8.62-14.23,17.41-13.62c3.81,0.27,7.64,0.44,11.43,0.94
	c3.28,0.44,6.23,0.06,9.04-1.78c2.36-1.54,5.05-1.86,7.64-0.72c3.94,1.74,8.99,2.36,11.8,4.87c6.24,5.59,16.32,8.21,16.33,19.5
	c0,3.93,3.26,7.21,7,9.15c9.96,5.15,19.39,11.42,30.85,13.22c6.74,1.06,12.02,5.41,17.65,8.93c12.19,7.6,22.68,17.58,36.33,23.32
	c8.99,3.79,15.28,12.14,18.96,21.64c2.06,5.32,4.77,10.07,8.72,14.32c8,8.59,11.06,19.45,13.06,30.68
	c3.03,16.99,6.82,33.79,13,49.96c0.83,2.16,1.67,4.34,2.74,6.38c7.53,14.33,12.37,16.63,28.44,14.21c2.7-0.41,6.82-2.57,8.09,0.88
	c1.13,3.07-2.94,4.73-5.34,6.32c-15.54,10.29-30.89,8.23-45.95-6.06C720.85,252.01,717.01,248.4,713.47,243.45z M680.89,189.51
	l-0.1-0.08c-0.26,2.96,0,5.41,3.52,6.6c1.77,0.6,3.21,2.3,4.65,3.67c7.13,6.76,11.37,15.45,15.77,24
	c8.04,15.64,18.36,29.23,34.01,38.03c10.22,5.74,23.44,3.93,31.67-4.72c-5.44,1.7-10.61,1.26-15.02,4.15
	c-0.67,0.44-2.51,1.53-1.96-1.02c0.26-1.23-0.41-1.98-1.36-2.35c-9.94-3.9-14.14-12.58-17.78-21.56
	c-6.7-16.52-10.29-33.88-13.73-51.29c-1.06-5.35-1.2-11.14-5.21-15.56c-0.96-1.06-1.8-2.22-1.93-3.72c-2.6,2.28-1.98-0.8-2.38-1.59
	c-0.86-1.67-1.37-3.52-2.09-5.47c-1.44,1.65,0.09,3.74-2.03,5.07c-0.5-4.09,0.75-8.38-1.8-11.71c-2.89-3.78-4.29-8.2-6.31-12.37
	c-4.75-9.84-11.56-17.73-21.98-21.94c-6.05-2.45-11.49-5.72-16.56-9.94c-7.66-6.37-15.84-12.24-24.75-16.68
	c-7.91-3.94-16.44-6.9-25.24-0.61c0.19-1.21,0-2.47,0.54-3.03c3.97-4.15,0.64-5.01-2.53-6.61c-6.9-3.47-14.54-6.03-18.83-13.27
	c-0.27-0.46-0.51-1.04-1.46-0.99c-3.98,0.19-3.98,0.12-2.05-3.53c2.32-4.4,1.58-6.83-2.76-9.28c-1.29-0.73-2.95-1.33-3.65-2.48
	c-3.39-5.58-9.24-6.25-14.69-8.19c0.05,2.9,4.61,5.42-0.03,7.88c0.15-5.67-0.42-6.53-4.37-6.69c0.46,1.83,3.48,1.85,3.26,4.51
	c-1.42-0.21-2.41-1.19-3.8-0.95c-1.59,0.27-3.09,0.57-2.83,2.58c0.26,2.08,1.49,1.85,3.23,1.43c1.53-0.38,2.94-1.6,4.68-1.04
	c-0.34,1.81,0.34,1.39,1.47,0.81c2.16-1.1,0.82-3.99,2.88-5.58c1.01,5.33-1.81,7.53-5.88,8.55c-2.46,0.62-5.41,1.78-7.19-1.19
	c-2.69-4.47-1.59-7.26,4.42-12.19c-2.03-0.69-3.55,0.56-5.14,1.34c-2.26,1.12-4.47,1.99-7.11,1.7c-4.79-0.53-9.59-0.88-14.4-1.22
	c-7.74-0.56-13.74,5.93-12.79,14.08c5.46-2.32,10.31-0.54,15,2.23c2.32,1.37,4.72,2.69,7.51,1.89c3.9-1.12,7.61-0.33,11.24,0.92
	c3.86,1.32,7.67,2.13,11.7,0.85c1.14-0.36,2.51-0.55,2.95,0.89c0.44,1.43-0.99,1.97-1.94,2.51c-2.85,1.63-5.93,2.86-8.86,4.32
	c-7.68,3.82-15.1,8.27-23.33,10.96c-1.44,0.47-3.92-1.09-4.2,1.19c-0.23,1.87,1.45,3.59,2.94,4.96c1.85,1.71,4.16,1.71,6.51,1.96
	c6.23,0.66,11.6-1.95,17.12-4.08l-0.02-0.02c-1.85,3.28-5.9,3.24-8.45,5.49c2.79,2.3,5.27,0.7,7.86-0.39
	c6.02-2.55,11.11-1.83,13.25,2.34c2.9,5.63,6.7,10.57,10.5,15.55c1.11,1.46,2.54,2.95,1.55,4.87c-1.79,3.49-1.25,6.16,2.21,8.14
	l0.1-0.1c-3.51,0.24-7.54-3.08-10.97,1.72c4.63-0.32,7.35,2.97,10.99,3.98c3.71,1.02,7.03,2.93,10.38,4.74
	c4.95,2.66,6.68,1.91,7.97-3.57c0.83-3.52,0.64-7.67,2.51-10.46c3.63-5.4,5.13-10.53,1.33-17.32c9.89,8.33,7.5,15.75,0.71,20.34
	c-2.42,1.64-2.52,4.11-2.91,6.52c-1.01,6.22-2.68,7.73-8.83,7.61c9.03,12.22,20.6,21.12,33.91,27.78c3.13,1.56,5.83,3.04,6.93,6.54
	c1.28,4.07,2.64,8.12,3.97,12.18c-2.87-1.74-3.05-4.91-4.05-7.64c-0.68-1.85-1.13-3.82-2.01-5.57c-1.85-3.68-5.67-4.77-9.15-5.23
	c-2.65-0.35-2.93,3.18-3.99,5.05c-4.33,7.64-8.44,15.41-12.57,23.16c-1.39,2.61-2.37,5.03-0.38,8.19c2.62,4.14,5.67,8.3,5.85,13.83
	c-2.68-2.06-2.1-5.64-4.35-7.91c-0.89,2.53-0.47,4.63,0.16,6.72c1.88,6.18,3.81,12.35,5.68,18.53c2.93,9.69,4.06,19.21-3.01,27.83
	c-2.76,3.37-6.96,5-10.15,8.17c6.07,0.64,7.65-5.85,12.3-7.19c-3.7,4.56-7.22,8.95-14.1,9.21c-3.22,0.12-7.35-0.28-9.77,3.34
	c-0.42,0.62-2.25,0.19-1.69,1.74c0.43,1.2,1.52,1.6,2.83,1.56c5.49-0.16,10.99-0.06,16.45-0.48c2.34-0.18,5.14-0.47,6.33-3.23
	c3.23-7.46,8.63-14.18,7.8-23.04c-0.08-0.87-0.08-2.18,1.7-3.05c0.08,7.27-3.44,14.52,1.97,21.34c0.9-5.47,0.8-10.89,4.68-15.06
	c0.58-0.62,0.33-2.3,0.06-3.39c-2.02-8.22-1.41-16.4-0.13-24.66c0.7-4.54,1.27-9.41-1.63-13.53c-2.24-3.18-3.7-6.46-3.11-10.56
	c-2.42,1.15-0.77,3.55-2.04,5.32c-1.4-6.01,0.57-9.58,6-10.82c5.69-1.3,11.31-2.69,16.31-5.83c0.8-0.5,2.04-1.19,2.07-1.83
	c0.05-1.35-1.43-1.51-2.49-1.96c-2.03-0.86-4.73-0.56-5.79-3.19c2.95-0.08,5.31,2.79,8.66,1.73c-1.97-8.75-2.84-17.8-9.4-24.75
	c-0.65-0.68-1.17-2.5-0.99-2.45c5.45,1.51,0.34-3.98,3-4.27c2.05,1.62-0.42,4.99,2.28,6.48c1.19-3.81-0.74-8.09,2.26-11.5
	c-0.44,3.96-0.92,7.91-0.49,11.85c1.61,14.71,5.87,28.79,10.98,42.59c0.97,2.62,4.6,6.88,5.13,6.62c4.1-2.03,4.09,2.09,7.19,3.36
	c-2.86,0.14-4.83-1.36-5.9,1.09c8.79,7.31,17.14,15.3,26.55,21.75c7.27,4.98,8.36,11.3,7.79,18.79c-0.55,7.18-2.27,13.87-9.63,17.31
	c-1.49,0.7-1.84,2.37-3.34,3.25c-1.58,0.92,0.06,3.48,0.73,3.56c2.93,0.34,7.32,1.28,8.64-0.22c4.29-4.87,9.21-9.87,8.54-17.42
	c-0.17-1.92-0.54-4.04,0.64-6.4c1.56,9.52,0.43,13.54-5.73,21.05c-0.81,0.99-1.1,2.07-0.71,3.24c0.53,1.61,1.91,0.97,2.97,0.89
	c4.65-0.37,9.28-7.18,8.41-13.05c-0.75-5.02-1-9.96,0.36-14.82c1.21-4.31-0.39-7.96-2.52-11.27c-5.53-8.65-10.16-17.93-17.37-25.43
	l-0.01,0.01c1.86-4.43-1.86-6.64-4.41-7.65C676.58,202.67,675.38,199.68,680.89,189.51z M561.49,132.44
	c3.38-1.59,6.73-0.85,10.16-0.15c3.06,0.62,6.21,0.89,9.34,1.03c1.9,0.09,2.71-1.65,3.53-3.08c0.37-0.64,0.22-1.27-0.42-1.7
	c-1.13-0.76-2.6-1.63-3.63-0.64c-3.68,3.53-7.97,2.42-12.19,1.95C565.65,129.57,563.44,130.35,561.49,132.44z M554.83,66.98
	c-4.53-2.92-8.99-0.93-13.53-0.03C546.07,72.32,549.31,72.33,554.83,66.98z M524.96,62.47c3.58,3.51,7.88,4.8,12.84,4.08
	C534,63.74,529.67,62.52,524.96,62.47z M680.93,198.86c1.25,2.66,3.72,3.35,6.81,4.46C685.63,200.69,683.85,198.95,680.93,198.86z"
	/>
<path d="M978.51,251.23c16.08,6.1,29.46,16.65,44.07,25.13c8.78,5.09,15.97,11.97,23.04,18.94c12.79,12.6,25.18,25.62,37.68,38.51
	c9.02,9.3,20.16,15.73,30.9,22.66c12.56,8.11,25.35,15.88,38.09,23.71c14.94,9.18,31.82,12.1,48.74,14.76
	c12.66,1.99,25.44,2.84,38.2,3.86c2.6,0.21,5.56,0.63,5.73,3.61c0.16,2.73-2.86,3.48-5.06,3.99c-9.13,2.09-18.46,2.31-27.76,2.46
	c-28.15,0.47-56.28-0.04-83.92-6.07c-18.81-4.11-36.9-11-55.7-15.25c-9.88-2.23-19.67-4.94-29.87-5.34
	c-2.12-0.08-4.9-0.61-5.91,1.52c-1.02,2.14,1.08,4.14,2.6,5.52c4.81,4.35,6.76,9.51,6.19,16c-0.28,3.25,0.14,6.72,1.03,9.87
	c2.46,8.7-1.68,14.2-8.27,18.81c-1.35,0.94-2.46,2.22-3.77,3.24c-1.1,0.86-2.73,1.62-3.05-0.4c-0.85-5.28-4.26-2.57-5.6-1.34
	c-3.48,3.2-4.12,0.59-5.01-1.86c-1.3-3.6,0.78-6.41,2.43-9.26c1.32-2.29,2.91-4.44,4.2-6.75c2.19-3.91,1.85-7.59-1.26-10.98
	c-8.1-8.82-15.88-17.94-24.33-26.41c-4.9-4.91-12.27-5.47-18.52-7.97c-1.62-0.65-1.63,0.91-1.46,2.2
	c0.99,7.62-1.02,15.69,3.52,22.81c0.91,1.43,0.89,3.33-0.15,4.77c-3.03,4.17-3.21,8.97-3.25,13.79c-0.04,4.89-2.59,8.07-6.71,10.21
	c-1.94,1.01-3.68,2.12-5.02,3.95c-2,2.73-5.08,3.06-8.1,2.74c-3.75-0.4-0.88-4.03-2.65-5.82c-2.03,1.28-4.1,2.56-6.15,3.87
	c-3.23,2.07-4.06,0.64-3.87-2.55c0.24-4.02,1.51-7.45,5.04-9.78c3.19-2.11,6.31-4.32,9.51-6.41c3.48-2.27,4.66-5.33,3.85-9.41
	c-2.11-10.67-6.77-20.44-10.8-30.41c-2.15-5.3-3.7-10.59-3.66-16.35c0.04-6.24-5.1-9.79-7.97-14.5
	c-6.76-11.06-15.05-20.97-23.78-30.53c-2.13-2.34-3.82-2.85-6.81-1.64c-6.56,2.64-9.1,7.76-10.1,14.22
	c-0.24,1.55,0.33,4.08-1.57,4.34c-2.3,0.32-2.1-2.45-2.9-3.95c-0.23-0.42-0.58-0.77-1.02-1.34c-3.31,1.99-5.6,5.26-10.61,4.77
	c-2.49-0.24-5.47,4.33-8.21,6.74c-2.21,1.95-4.06,2.63-4.74-1.23c-0.11-0.65-0.12-1.78-0.41-1.86c-6.76-1.92-2.78-6.13-1.39-8.8
	c2.85-5.49,3.9-10.8,1.73-16.7c-0.44-1.2-1.41-3.2,0.55-3.93c1.69-0.62,1.86,1.41,2.58,2.41c2.65,3.71,6.67,4.55,10.96,1.99
	c3.48-2.07,4.61-4.97,2.34-8.76c-0.63-1.06-1.68-2.67-0.43-3.6c1.84-1.37,2.36,1.01,3.4,1.84c1.11,0.88,1.88,2.48,3.72,1.13
	c1.85-1.36,4.24-2.14,5.29-4.34c0.4-0.83-0.93-1.16-1.49-1.68c-2.21-2.01-4.47-3.96-6.66-6c-7.44-6.92-11.92-15.02-10.36-25.61
	c0.77-5.24-2.19-9.08-4.34-13.61c-3.46-7.29-8.81-13.29-12.15-20.42c-4.89-10.41-4.52-10.64-15.81-9.37
	c-4.33,0.49-6.91-1.87-8.86-5.15c-1.92-3.22-1.71-6.76,1.09-9.12c12.46-10.51,26.7-17.45,43.26-15.22c9.22,1.24,16.71,7,20.15,16.64
	c1.95,5.46,4.41,10.73,6.66,16.08c2.06,4.91,5.27,8.15,10.96,8.83c12.41,1.48,22.41,8.84,33.26,14.12c4.63,2.25,9.34,4.4,13.73,7.06
	c3.15,1.91,4.45,0.88,6.08-1.88c9.05-15.27,15.54-31.5,18.83-48.97c0.13-0.71-0.21-1.72,1.66-2.17
	C997.2,215.85,989.19,233.73,978.51,251.23z M882.64,316.16c0.19-3.91,4.5-4.94,5.97-8.45c-3.76-0.1-7.69,1.86-10.86-1.84
	c1.93,5.88,0.56,10.93-2.42,15.8c-2.62,4.28,1.94,6.84,2.91,10.27c0.3,1.05,1.72,0.04,2.46-0.57c3.19-2.69,6.6-5.15,9.34-8.58
	c-2.97-0.8-4.67,2.61-7.88,1.64c1.4-2.12,2.57-3.9,3.91-5.94c-2.25,0.1-4.19,2.04-5.46,0.09c-0.63-0.97,0.65-2.38,2.21-2.59
	c2.47,3.13,4.47-2.19,6.94-0.33c0.12,2.34-2.52,3.28-3.06,5.94c3.74-1.73,5.9-0.69,5.73,4.06c0.5,0.06,1,0.12,1.5,0.19
	c1.78-2.61,3.56-5.22,5.17-7.59c2.49,1.47,1.96,4.04,4.36,4.73c0.12-7.33,5.48-12.35,7.69-18.71c1.56,0.11-0.09,3.79,2.46,2.4
	c1.04-0.57-0.63-2.81,0.86-3.87c1.52,0.12,0.29,2.19,1,2.27c2.3-0.49,0.39-3.74,1.87-2.77c3.27,2.14,5.77-0.3,8.58-0.28
	c-0.52,1.43-1.96,1.64-3.07,2.25c-0.75,0.41-1.67,0.73-1.23,1.75c0.41,0.92,0.9,1.6,2.07,0.31c0.65-0.71,0.68,0.68,0.74,1.12
	c0.38,2.82,2.1,4.94,3.98,6.74c10.82,10.34,17.72,23.57,26.42,35.47c1.13,1.54,1.78,3.07,1.65,5.03
	c-0.39,5.93,1.38,11.35,3.57,16.84c4.04,10.13,8.95,19.98,10.77,30.91c0.82,4.97-0.52,8.8-4.74,11.62c-3.31,2.22-6.6,4.48-9.85,6.79
	c-2.2,1.57-3.89,3.46-3.25,6.85c1.83-1.36,3.27-3.13,5.05-3.58c1.88-0.48,5.4-2.84,5.42,2.22c0,1.13-1,2.86,1.08,3.27
	c1.64,0.32,3.44-0.54,3.72-1.87c0.68-3.3,3.66-3.77,5.76-4.8c3.63-1.77,5.01-4.83,5.19-8.13c0.26-4.86,0.26-9.61,3.25-13.78
	c0.75-1.04,0.69-2.3,0.05-3.3c-3.73-5.85-2.88-12.42-3.21-18.85c-0.28-5.39,0.57-11.46-6.29-13.97c-0.03-0.01,0.1-0.45,0.3-1.25
	c3.95,4.83,10.72,2.73,14.93,6.97c1.2,1.21,2.81,0.31,3.33-1.57c0.56-2.03,2.02-4.27-0.05-6.01c-1.55-1.3-1.21,2.09-2.91,1.64
	c0.64-1.88,1.26-3.73,1.9-5.59l-0.11,0.1c1.75,3.7,6.28,6.28,4.22,11.53c-0.54,1.38,0.82,2.9,2.49,3.21
	c4.84,0.89,7.56,4.58,10.58,7.85c6.08,6.6,11.85,13.51,18.21,19.82c8.19,8.13,6.86,14.36,1.17,22.46c-1.77,2.52-3.75,4.98-3.43,8.93
	c3.12-2.17,7.32-0.68,9.36-4.39c0.95,1.07,0.32,2.95,1.66,3.77c3.97-0.61,4.71-4.61,7.29-6.63c4.99-3.9,1.15-8.73,1.17-12.95
	c0.04-8.98-0.07-18.18-8.21-24.85c-2.28-1.87-3.59-5.8,0.52-7.72c3.31-1.54,2.79-4.55,4.06-6.96c0,1.78,0,3.56,0,5.35
	c1.68-0.15,0.39-2.14,1.67-2.4c0.33,0.94,0.51,2.53,0.97,2.62c2.25,0.43,1.58-2.33,3.81-3.57c-2.76,4.52,0.42,4.14,2.63,4.52
	c4.89,0.84,9.96,1.11,14.64,2.59c4,1.27,5.26-0.11,5.95-4.03c-1.49,7.46,4.51,5.77,7.8,7.31c2.76,1.29,2.38-1.22,3.23-2.69
	c-0.4,2.71,0.61,3.61,3.04,4.28c12.48,3.4,24.79,7.48,37.33,10.63c37.37,9.37,75.37,9.35,113.48,6.7c2.25-0.16,5.08,0.14,7.08-2.62
	c-7.89-0.69-15.49-1.25-23.05-2.04c-19.51-2.04-39.04-4.35-57.28-12.12c-12.72-5.42-23.7-14.03-35.72-20.76
	c-2.25-1.26-3.99-5.66-7.87-2.42c-0.52,0.44-0.42-0.38-0.47-0.79c-0.58-4.32-3.9-4.25-7.14-5.48c-2.1-0.8-3.18-4.7-6.88-3.47
	c1.42-2.34-0.78-2.98-1.99-3.69c-14.05-8.19-24.7-20.21-35.35-32.02c-20.43-22.66-43.51-41.86-70.23-56.62
	c-5.07-2.8-10.43-5.1-15.58-7.77c-1.93-1-3.03-0.99-4.49,0.97c-8.15,10.94-18.13,19.85-30.25,26.22c-2.29,1.21-2.84,2.56-1.43,4.7
	c-2.57-1.21-3.4-3.72-5.17-6.21c1.93,0.28,2.5,1.99,4.4,1.04c13.38-6.7,24.03-16.38,32.7-28.62c-10.27-5.34-20.41-10.28-30.19-15.83
	c-7.53-4.27-15.59-6.42-24-7.39c-1.35-0.16-1.35-0.76-1.9-1.27c-7.11-6.64-9.34-15.88-12.81-24.41
	c-3.94-9.66-13.85-16.64-24.1-15.89c-11.17,0.82-20.93,5.86-30.55,11.15c-2.31,1.27-2.86,4-4.95,5.62
	c-1.34,1.05-0.94,3.44,1.96,3.57c1.41,0.06,2.52-1.45,4.43-0.44c-1.91,0.74-3.46,1.34-5.17,2c2.09,1.77,29.56,3.91,35.79,3.27
	c-4.7,2.24-9.9,0.14-14.87,1.35c0.94,3.09,1.29,6.42,2.87,8.99c4.14,6.74,8.58,13.22,12.26,20.32c2.43,4.7,5.24,8.76,4.38,14.16
	c-2.06,12.8,5.32,20.93,13.96,28.4c1.96,1.7,5.3,1.64,6.25,4.74c-3.11,2.98-7.26,4.66-10.05,8.03c-1.9,0.21-2.75,1.6-3.63,3.05
	C891.71,307.67,887.4,312.12,882.64,316.16z"/>
<path class="st0" d="M434.95,352.94c5.23,0.83,10.48,1.55,15.68,2.54c1.58,0.3,3.08,1.22,4.49,2.06c1.34,0.8,2.42,2.14,1.75,3.73
	c-0.55,1.3-1.99,1.51-3.42,1.22c-4.82-0.98-9.53,0.03-14.27,1.1c4.53,0.65,9.26-1.89,14.81,0.81c-6.27,1.76-11.49,3.5-16.85,4.62
	c-3.35,0.7-7.2,1.05-10.28,0.56c-4.62-0.74,1.86-5.78-2.02-8.09c-1.32,3.74,1.71,9.84-5.56,10.54c-0.13-2.69-0.27-5.75-0.46-9.74
	c-1.63,3.92,0.89,7.83-1.83,10.12c-2.53,2.13-6.29,1.5-9.83,2.68c-0.18-2.39,1.82-4.35,0.1-6.83c-0.22,5.86-3.45,7.55-8.58,8.22
	c-7.3,0.95-14.46,2.95-21.68,4.5c-0.3,0.14-0.6,0.29-0.89,0.45c-4.03,1.42-8.16,0.72-12.26,0.54c-0.93-0.04-2.07,0.1-1.4-1.61
	c0.53-1.37,0.35-1.44-1.46-1.14c-0.43-0.32,0.28-2.67-0.99-1.05c-2.05,2.62-3.34,5.84-4.96,8.81c-0.6,0.31-1.2,0.62-1.79,0.92
	c-11.63,0.31-14.72,3.42-15.07,14.86c-0.21,6.61,0.83,13.24-0.5,19.86c-0.53,2.66,1.15,4.64,3.34,6.22
	c3.99,2.88,8.67,5.09,10.45,11.13c-4.32,0-8.69-0.02-13.05,0c-5.03,0.02-7.6-2.07-9.73-7.12c-3.74-8.84-8.19-17.33-10.1-26.85
	c-0.39-1.96-0.64-3.83-0.57-5.86c0.25-7.65-0.28-15.34,2.77-23.2c-3.13,1.47-4.67,2.87-2.28,5.81c-2.7-0.52-3.47-2.37-4.85-3.44
	c-0.65,0.65-0.3,1.33,0.23,1.64c6.31,3.61,1.87,9.14,2.44,13.76c0.17,1.39-1.24,1.37-2.2,1.13c-9.94-2.53-19.94-4.44-30.28-3.97
	c-1,0.05-1.25-0.93-1.55-1.71c1.88-4.88,1.25-9.79,0.11-14.72c0,4.94,0,9.89,0,14.83c-2.46,1.39-2.92,3.83-3.15,6.28
	c-0.43,4.63-0.44,9.3-1.06,13.89c-1.64,12.12,3.66,20.45,13.83,26.31c1.13,0.65,2.16,1.46,3.18,3.41c-6.39,0-12.79,0.21-19.17-0.07
	c-4.38-0.2-10.41-7.12-10.77-13.49c-0.46-8.23-3.73-14.99-8.34-21.43c-2.37-3.3-3.96-7.12-4.29-11.02
	c-0.47-5.67-4.87-5.95-8.13-5.56c-5.8,0.7-10.89-0.05-16.14-3.74c4.13,5.2,2.25,10.95-3.77,13.43c-4.98,2.05-10.03,0.99-13.99-3.12
	c-0.29,1.5,0.64,2.22,1.36,2.98c2.2,2.3,2.22,2.28-0.61,3.19c-0.24,0.08-0.68,0.25-0.67,0.29c1.67,5.97-4.05,7.17-6.79,10.12
	c-4.58,4.94-3.52,16.43,2.45,22.15c1.85,1.77,4.33,2.95,5.64,5.53c-5.17,0.14-8.86-1.81-11.33-6.99c-0.24,2.36,1.45,4.03-0.41,5.32
	c-1.82,1.27-3.55,0.29-5.18-0.34c-2.32-0.9-3.58-2.99-4.46-5.15c-1.06-2.6-1.69-5.37-2.67-8.01c-1.74-4.66-1.57-8.62,1.89-12.85
	c2.87-3.51,4.73-8,6.4-12.31c3.38-8.69,9.18-15.7,15.07-22.65c2.52-2.97,2.07-5.32-1.05-6.82c-5.75-2.77-9.33-7.42-11.82-12.93
	c-1.46-3.22-3.77-1.54-5.48-1.34c-22.01,2.48-44.12,3.47-66.22,3.4c-18.75-0.06-37.58-0.56-55.87-5.69
	c-6.37-1.79-12.38-4.52-18.31-7.47c3.49-0.22,6.82-0.73,9.75,2.29c2.17,2.25,5.43,1.8,7.89,0.34c5.08-3.03,9.88-3.63,14.88,0.01
	c1.78,1.3,4.17,1.5,5.48-0.2c2.1-2.72,4.94-3.1,7.83-3.52c18.61-2.66,34.72-11.85,51.45-19.47c17.71-8.07,33.98-18.83,51.54-27.16
	c24.46-11.62,49.88-15.29,76.63-10.17c11.91,2.28,23.57,5.25,35.12,8.85c20,6.23,36.58,17.98,51.71,31.93
	c8.53,7.87,17.81,14.34,28.42,19.01c9.23,4.06,18.89,4.97,28.76,4.06c4.53-0.41,8.88-0.34,13.08,1.54c-2.68,0.82-5.35,1.64-8.44,2.6
	c2.82,1.22,6.69-2.35,7.76,2.59c0.13,0.58,1.1,0.63,1.75,0.26c0.8-0.45,0.98-1.21,1.03-2.09
	C437.33,354.7,435.13,354.48,434.95,352.94z M273.87,335.4c0.05-5.39-3.03-10.55-0.44-16.09c-1.8,0.06-0.67,2.2-2.47,1.64
	c0-1.9,0-3.82,0-5.74c-2.33,7.21-0.69,13.82,3.01,20.1c0.31,1.76,0.57,3.52,0.94,5.27c0.58,2.76-0.27,6.04,2.74,7.99
	c0.19,6.79,4.1,12.98,2.92,20c0.85-10.01-2.01-19.84-0.71-29.83c-0.78,3.43-0.77,6.85-0.8,10.27c-0.01,0.65-0.2,1.39-1.02,0.48
	c-0.21-0.23-0.3-0.58-0.45-0.87c-1.21-8.11-1.07-16.21,0.22-24.34c-0.77,1.72-1.27,3.45-1.55,5.22
	C275.92,331.68,276.73,334.28,273.87,335.4z M324.86,355.67c-0.16-0.13-0.32-0.25-0.47-0.38c-2.11,2.18-4.23,4.35-6.32,6.55
	c-0.41,0.43-1.04,0.89-0.9,1.11c2.33-1.97,4.78-4.03,7.2-6.13C324.64,356.57,324.69,356.06,324.86,355.67z M311.95,365.01
	c-2.32,4.08-2.31,5.85,0,10.87C311.32,372.27,310.42,368.65,311.95,365.01z M288.74,372.42c-1.61-3.51-1.45-7.34-2.23-10.99
	C286.11,365.3,285.84,369.15,288.74,372.42z M191.57,345.35c-0.19,3.91,1.35,6.71,5.03,8.15
	C193.95,351.4,192.32,348.65,191.57,345.35z"/>
<path class="st1" d="M147.07,304.94c-5.57-2.2-6.96-5.7-5.1-11.66c2.56-8.2,2.08-8.34,10.78-7.8c0.66,0.04,1.33,0.08,1.99,0.08
	c4.58,0.01,7.21,1.34,5.58,6.76c-0.9,2.97-0.48,6.34-1.37,9.32c-1.19,3.98,0.69,5.01,4.32,5.28c-3.61-1.84-2.83-4.6-2.45-7.65
	c1.21-9.64,4.04-19.07,0.82-29.13c-2.21-6.93-1.09-7.27,6.07-8.46c7.44-1.24,13.26,3.4,19.83,5.23c3.79,1.06,6.86,4.04,10.92,4.62
	c-0.01-0.01-0.17-0.17-0.17-0.17c7.23,2.04,7.02,7.29,5.8,13.12c-0.5,2.41-0.39,4.95-0.8,7.39c-0.39,2.35-2.5,3.18-4.42,3.41
	c-2.71,0.32-1.76-2.31-2.08-3.59c-1.49-6.07-2.74-12.2-6.23-17.58c1.44,6.37,4.28,12.38,4.67,18.98c0.09,1.59,1.74,3.96-1.17,4.46
	c-2.5,0.43-2.37-2.14-3.11-3.68c-0.46-0.94-0.22-2.46-1.84-2.6c-0.32-6.29-3.85-11-7.59-15.61c3.15,4.88,4.37,10.73,7.7,15.52
	c-0.05,0.49-0.15,0.98-0.13,1.46c0.1,2.29,3.13,4.84,1.56,6.32c-2.8,2.65-6.59,4.29-10.07,6.15c-2.08,1.11-2.87-1.93-4.96-1.85
	c-0.48,1.66,2.11,1.94,1.8,3.1c-6.63,4.33-13.15,8.33-20.16,11.43c-1.03,0.46-2.11,1.68-3.16,0.97c-1.3-0.89-0.38-2.4-0.21-3.65
	c1.1-8.25,0.9-8.55-6.99-10.33L147.07,304.94z M167.54,273.72c6.51,8.81,14.05,16.73,19.95,25.97
	C182.75,289.51,175.29,281.46,167.54,273.72z M176.44,296.16c-1.83-4.67-5.43-7.73-9.67-10.18
	C170,289.38,173.22,292.77,176.44,296.16z M147.99,294.17c-0.31,0.26-0.62,0.52-0.93,0.78c2.63,2.96,5.27,5.91,7.9,8.87
	C153.69,299.64,150.63,297.09,147.99,294.17z"/>
<path class="st2" d="M218.9,262.85c3.32-6.5,1.96-13.95,4.28-20.71c1.85-5.4,2.91-11.07,4.49-17.28
	c10.09,7.24,20.99,12.05,29.68,20.19c0.59,0.55,1.19,1.11,1.79,1.66c1.21,4.46,4.59,7.1,8.1,9.63l-0.19-0.19
	c1.7,3.76,1.06,7.25-0.77,10.87c-1.79,3.54-3.08,7.33-4.57,11.02c-0.68,1.68-1.24,3.45-3.88,3.96c0.66-7.09,3.98-13.5,3.45-20.64
	c-1.43,5.64-2.76,11.32-4.38,16.91c-0.39,1.36-0.38,4.09-2.55,3.52c-2.17-0.56-0.78-2.74-0.48-4.23c1.47-7.28,2.68-14.59,2.83-22.08
	c-2.53,8.47-2.5,17.52-5.8,25.82c0.74-9.34,2.36-18.61,0.45-27.99c-0.38,6.71-0.03,13.47-1.3,20.11c-0.37,1.95-0.6,3.93-0.92,5.9
	c-0.18,1.08,0.02,2.73-1.59,2.58c-1.73-0.16-1.08-1.8-0.94-2.81c0.79-5.45,0.69-10.93,0.68-16.41c0-0.79,0.14-1.65-0.94-2.46
	c-0.42,6.44-0.86,12.68-1.21,18.93c-0.11,1.92-0.07,3.63-2.75,3.79c-2.45,0.15-2.53-1.58-3.03-3.12
	c-2.03-6.18-2.62-12.84-6.25-18.48c0.25-4.49-2.06-8.2-3.73-12.1c0.5,4.25,1.1,8.47,3.83,12.02c0.14,6.05,3.35,11.34,4.26,17.21
	c0.17,1.12,0.47,2.22,0.46,3.41c-3.64-7.24-7.27-14.44-10.15-22.05c0.2,4.82,2.35,9.04,4.17,13.34c1.09,2.59,2.3,5.13,3.36,7.73
	c0.29,0.7,0.47,1.66,0.22,2.32c-0.39,1-7.91,1.03-8.73,0.07c-2.75-3.18-5.86-5.83-10.03-6.97c-2.9-2.54-2.8-5.28-0.74-8.32
	C217.1,266.38,217.94,264.58,218.9,262.85z M231.28,232.61c2.8,15.55,6.85,30.85,10.09,46.35
	C239.79,263.12,235.42,247.91,231.28,232.61z M242.3,274.87c0.61-7.84,1.67-15.54-1.51-22.86
	C241.3,259.63,241.8,267.25,242.3,274.87z M222.86,267.73c0.97,4.57,3.27,8.46,6.05,12.13
	C227.85,275.33,225.35,271.54,222.86,267.73z"/>
<path class="st2" d="M327.17,283.1c-3.3,0.98-5.79,3.09-7.92,5.68c-0.67,0.78-1.34,1.56-2.01,2.34c-2.68,2.34-5.38,2.5-8.1,0.08
	c4.7-6.8,6.58-14.64,7.73-22.74c-2.59,7.57-5.19,15.13-7.78,22.7c-3.12,0.38-4.03-0.37-2.77-3.73c3.74-9.98,5.19-20.41,4.35-31.2
	c-0.49,4.22-1.04,8.43-1.47,12.65c-0.6,5.97-2.08,11.73-4.01,17.39c-0.55,1.61-0.39,4.12-3.15,3.43c-2.75-0.69-1.56-2.71-1.12-4.44
	c2.85-11.1,4.85-22.34,5.85-33.77c0.13-1.44,0.44-2.83-0.54-4.22c-1.54,7.39-1.58,15-3.91,23.27c-0.47-6.12,0.62-11.31-0.75-16.42
	c-0.6,6.05-0.6,12.14-1.49,18.16c-0.59,4-0.84,8.04-0.72,12.13c0.05,1.58,0.1,4.44-3.23,3.68c-2.8-0.64-1.82-2.76-1.63-4.42
	c1.01-8.95,1.01-17.89-0.1-26.83c-0.08-0.62-0.27-1.23-0.62-2.75c-1.12,2.68-0.67,4.55-0.48,6.35c0.85,7.8,0.39,15.58-0.28,23.36
	c-0.12,1.36,0.35,3.28-2.05,3.19c-1.97-0.07-2.38-1.53-2.52-3.1c-0.44-5.12-0.82-10.25-1.29-15.38c-0.14-1.54,0.48-3.29-1.51-5.07
	c-0.07,6.25,0.67,11.89,1.23,17.55c0.15,1.56,1.14,4.32-0.95,4.59c-2.28,0.29-5.59,0.16-5.73-3.81c-0.04-0.96-0.5-1.92-0.84-2.85
	c-2.39-6.59-1.94-11.74,3.55-17.6c6.79-7.24,11.41-16.51,17.09-24.81c4.26-6.22,4.39-6.19,8.1,0.12c2.69,4.57,5.27,9.21,7.86,13.84
	c1.22,2.19,2.56,4.21,5.19,4.89l-0.14-0.19c-0.35,1.61,0.63,2.83,1.2,4.18c3.24,7.65,5.45,15.52,4.78,23.95L327.17,283.1z
	 M322.65,269.63c-1.68,5.62-3.76,11.09-6.42,16.33C320.35,281.28,322.71,275.92,322.65,269.63z"/>
<path class="st0" d="M353.24,387.92c0.6-0.31,1.2-0.62,1.79-0.92c2.42-0.49,3.56-2.51,4.99-4.18c3.06,0.2,6.17,0.82,9.17,0.47
	c2.3-0.27,5.3,1.18,6.92-1.85c0.29-0.16,0.59-0.31,0.89-0.45c1.41,9.64,7.66,16.37,14.44,22.41c3.64,3.24,6.24,6.48,5.93,11.32
	c-0.44,7.02,0.99,13.11,6.73,17.8c1.32,1.08,1.97,2.97,2.82,4.31c-7.47,0.33-14.35-1.44-20.63-5.24c-1.43-0.86-4.29-0.75-3.31-3.92
	c0.97-3.15,2.87-2.9,5.4-2.08c1.33,0.43,2.92,0.08,4.48-0.41c-1.59-0.17-3.41,0.08-4.69-0.64c-1.14-0.64-3.61,0.55-3.48-2.31
	c0.09-1.94-0.04-3.69,2.82-3.96c-2.83,0.2-4.46-0.88-6.37-2.57c-5.05-4.48-9.94-9.17-16.55-11.71
	C357.51,401.24,355.49,394.37,353.24,387.92z"/>
<path class="st2" d="M259.13,246.72c-0.6-0.56-1.2-1.12-1.79-1.66c-1.63-2.03-3.23-4.12-4.93-6.11c-1.01-1.18-1.1-2.06-0.1-3.44
	c2.81-3.89,5.5-7.87,8.02-11.96c1.34-2.16,2.3-2.63,4.53-0.88c9.39,7.37,17.28,15.82,21.65,27.19c0.7,1.82,0.41,3.1-0.39,4.64
	c-1.87,3.56-4.17,6.81-7.15,9.49c-2.93,2.63-3.88,5.53-2.44,9.33c0.88,2.3,1.28,4.79,1.81,7.22c0.29,1.35,2.08,3.38-1.02,3.62
	c-2.14,0.16-4.48,0.11-4.16-3.27c0.7-7.42,1.45-14.85,1.86-22.29c0.29-5.2,0.06-10.43-0.59-15.66c-0.76,11.49-0.89,23-3.29,34.39
	c0-3.29,0-6.58,0-9.87c-2.67,3.77-1.79,7.91-1.8,11.87c-0.01,3.55-1.67,4.07-4.62,3.78c-2.68-0.27-2.95-1.52-2.04-3.68
	c2.12-5.03,4.27-10.06,6.25-15.15c1.18-3.03,1.77-6.11-1.91-8.09c0,0,0.19,0.19,0.19,0.19c0.03-2.13-2.34-2.88-2.77-4.78
	c1.69-6.33-1.67-11.81-1.8-17.82c-0.54,0.09-1.07,0.18-1.61,0.27c1.18,5.89,2.36,11.79,3.54,17.68
	C262.78,250.04,260.96,248.38,259.13,246.72z M269.5,253.35c0.47,0.04,0.94,0.09,1.41,0.13c-0.22-3.8-0.44-7.61-0.66-11.41
	C269.05,245.88,268.91,249.63,269.5,253.35z"/>
<path class="st2" d="M218.9,262.85c-0.96,1.72-1.8,3.53-2.91,5.16c-2.05,3.03-2.16,5.78,0.74,8.32c2.29,1.89,4.65,3.7,6.85,5.69
	c0.92,0.83,2.63,1.72,2.02,3.09c-0.72,1.61-2.83,1.39-4.37,1.85c-1.42,0.43-2.37-0.01-3.16-1.52c-0.99-1.9-0.6-4.33-2.45-5.96
	c-1.08,2.15,0.34,3.88,0.92,5.63c0.61,1.84,0.86,3.17-1.42,3.87c-2.12,0.65-3.47,0.3-4.03-2.12c-0.51-2.25-1.41-4.41-1.99-6.64
	c-1.69-6.59-3.3-7.95-10.8-8.87c0.01,0.01,0.17,0.17,0.17,0.17c-2.26-3.13-6.16-3.55-9.17-5.46c-1.41-0.9-3.32-1.55-2.02-3.66
	c3.3-5.36,0.93-10.54-0.26-15.77c-0.36-1.6-1.46-3.51-0.12-4.68c1.37-1.19,3.1,0.36,4.57,0.9c7.28,2.7,14.42,5.84,21.8,8.24
	c4.66,1.52,7.07,3.7,5.75,8.79C218.79,260.83,218.94,261.86,218.9,262.85z M214.42,287.41c-3.82-11.94-7.64-23.88-11.46-35.83
	C205.15,264.03,208.84,276.02,214.42,287.41z M208.86,253.1c-0.38,0.12-0.77,0.25-1.15,0.37c1.57,4.69,3.15,9.38,4.72,14.07
	C212.75,262.26,210.48,257.78,208.86,253.1z M200.68,266.89c-1.98-3.41-2.75-7.46-5.2-10.64
	C195.8,260.47,197.61,263.98,200.68,266.89z"/>
<path class="st2" d="M321.17,255.35c0.49-5.81,5.56-8.2,8.96-11.82c0.85-0.91,1.89-0.32,2.34,0.79c3.98,9.92,9.79,19.18,10.58,30.24
	c0.27,3.75-1.03,6.8-3.22,9.6c-3.05,3.91-6.42,7.61-9.19,11.7c-3.23,4.76-5.9,1.89-8.79-0.11c1.49,0.65,2.6-0.02,3.45-1.14
	c5.81-7.7,9.26-16.6,13.02-25.35c-2.04,2.59-3.47,5.49-5,8.34c-3.42,6.35-5.75,13.37-11.45,18.3c1.77-4.27,3.54-8.53,5.31-12.8
	c0,0-0.16,0.19-0.16,0.19c0.96,0.06,1.81-0.4,1.74-1.29c-0.68-9.48-1.76-18.87-7.72-26.84L321.17,255.35z"/>
<path class="st2" d="M363.3,308.9c-2.69,0.05-4.37,2.16-6.58,3.18c-2.11,0.98-4.95,4.35-5.73-1.34c-0.15-1.12-1.63,0.94-2.42-0.17
	c2.96-6.14,6.88-11.86,8.33-18.64c-2.98,4.94-5.54,10.06-8.1,15.18c-0.58,1.17-1.4,2.34-0.09,3.55c-6.87-3.57-6.86-3.57-4.35-10.72
	c0.9-2.56,1.69-5.16,1.47-8.11c-1.58,4.2-3.15,8.4-4.73,12.6c0.86-4.1-3.09-7.76-0.94-11.95c0.65-1.26,1.07-2.51,2.43-2.71
	c6.33-0.92,9.3-5.82,12.65-10.34c1.65-2.23,3.44-4.35,5.51-6.94c2.73,5.07,4.45,9.96,4.88,14.95c0.48,5.56-0.38,11.23-0.37,16.85
	c0,2.09-1.68,3.1-2.15,4.79L363.3,308.9z M349.46,298.65c2.33-3.84,4.52-7.74,5.24-12.23C352.15,290.16,350.24,294.17,349.46,298.65
	z M362.19,289.26c-1.72,3.74-3.45,7.48-5.17,11.22C359.92,297.23,362.43,293.82,362.19,289.26z"/>
<path class="st1" d="M146.93,304.79c0.12,0.3,0.15,0.69,0.36,0.89c1.64,1.61,5.23,1.09,5.56,3.53c0.41,3.01-0.39,6.21-0.87,9.29
	c-0.5,3.21-3.6,3.49-5.82,4.67c-1.59,0.84-3.34,1.37-5.01,2.04c0.44-1.43,0.91-3.37-0.68-3.87c-3.27-1.02-3.58-4.07-5.05-6.28
	c-1.77-2.66-2.29-6.03-5.32-9.51c1.56,5.81,3.7,10,6.22,13.96c1.33,2.09,1.63,5.22,4.95,5.6c-3.37,3.02-6.79,3.61-10.27,0.22
	c-0.24-0.24-0.5-0.49-0.75-0.75c-1.8-2.09-3.47-4.29-5.42-6.23c-1.91-1.9-0.28-3.45,0.37-4.87c1.69-3.64,0.4-9.59,6.79-9.78
	c4.11-0.13,8.41-2.05,12.32,0.98c0.75,0.58,1.78,0.87,2.77,0.28C147.07,304.94,146.93,304.79,146.93,304.79z M144.54,322.53
	c-2.23-5.28-4.45-10.56-6.68-15.84C138.69,312.55,140.52,317.99,144.54,322.53z"/>
<path class="st2" d="M363.13,309.08c3.07-0.24,3.5-2.64,3.8-4.92c0.26-1.96,0.16-3.97,0.16-5.95c0.01-9.45,0.01-9.39,9.45-10.68
	c2.43-0.33,2.77,0.56,2.68,2.68c-0.26,6.48-1.37,12.9-3.14,19.03c-1.72,5.95-7.78,8.67-12.27,12.45c-0.66,0.56-8.2-4.32-8.33-5.46
	c-0.27-2.34,2.11-2.56,3.31-3.74c1.38-1.35,3.84-1.34,4.51-3.59C363.3,308.9,363.13,309.08,363.13,309.08z M376.87,299.86
	c-0.38-0.22-0.76-0.44-1.14-0.66c-1.94,4.3-3.88,8.59-5.82,12.89C373.33,308.51,375.03,304.15,376.87,299.86z"/>
<path class="st1" d="M125.89,328.3c2.88,1.97,3.05,3.54-0.56,4.84c-3.9,1.41-7.67,3.2-11.62,4.4c-3.94,1.2-5.67-0.47-5.23-4.58
	c0.14-1.31,0.76-2.58,0.79-3.88c0.13-4.73,2.31-5.55,6.47-3.98c2.43,0.92,5.14,1.08,7.73,1.59
	C124.28,327.23,125.08,327.76,125.89,328.3z"/>
<path class="st2" d="M385.73,332.79c-0.77,0.26-1.81,0.3-2.27,0.83c-1.39,1.6-1.97-0.17-2.97-0.38c-2.39-0.52-0.82-1.64-0.54-2.38
	c1.27-3.36,2.66-6.68,4.2-10.48c-3.02,1.29-2.45,4.52-4.47,5.85c-0.02-6.4,2.56-10.34,10.01-14.88c0.67,7.31,2.56,14.43-2.57,20.82
	C386.68,332.38,386.21,332.58,385.73,332.79z"/>
<path class="st2" d="M385.73,332.79c0.47-0.21,0.94-0.42,1.41-0.63c3.86-0.81,4.78-3.55,4.7-7.01c-0.04-1.49-0.06-3.01,0.18-4.46
	c0.36-2.14,2.34-2.28,3.88-2.27c2.21,0.02,1.17,1.86,1.22,3.02c0.35,8.26-6.67,12.03-10.81,17.54c-1.08,1.44-2.44,0.23-3.48-0.52
	c-1.91-1.38-0.08-2.19,0.62-3.1C384.15,334.46,384.97,333.65,385.73,332.79z"/>
<path class="st2" d="M403.47,334.14c1.16,6.61,1.16,6.61,6.24,3.72c0.69,3.91-0.09,7.63-3.21,9.6c-1.94,1.22-5.46,0.46-7.05-1.81
	C397.48,342.83,399.77,337.1,403.47,334.14z"/>
<path class="st1" d="M125.89,328.3c-0.8-0.54-1.61-1.07-2.41-1.61c-1.25-1.14-2.34-2.43-1.81-4.23c0.3-1.03,0.82-2.32,1.64-2.79
	c0.93-0.54,1.5,0.87,2.23,1.45c1.53,1.19,3.12,2.3,4.7,3.45c0.27,0.27,0.52,0.52,0.76,0.76c1.18,0.83,1.67,2.35,1.18,3.32
	c-0.68,1.37-2.28,0.41-3.48,0.27C127.75,328.81,126.82,328.51,125.89,328.3z"/>
<path class="st0" d="M57.04,330.7c3.47,3.72,7,7.39,10.39,11.19c0.92,1.03,3.28,2.37,1.03,3.84c-1.51,0.99-3.82,1.13-5.06-1.28
	c-2.29-4.48-4.66-8.93-6.99-13.39C56.62,330.94,56.83,330.82,57.04,330.7z"/>
<path class="st0" d="M82.7,333.38c2.37,3.25,4.55,6.25,6.74,9.24c0.62,0.85,1.03,1.66,0.12,2.6c-0.78,0.8-1.67,1.04-2.66,0.6
	C84.45,344.73,81.62,336.9,82.7,333.38z"/>
<path class="st1" d="M206.71,278.12c1.18,3.7,2.15,6.64,3.04,9.61c0.37,1.23,0.89,2.64-0.85,3.33c-0.89,0.36-1.99,0.98-2.74,0.73
	c-1.7-0.57-0.81-2.23-0.8-3.39C205.37,285.15,205.06,281.84,206.71,278.12z"/>
<path d="M321.86,295.9c5.7-4.92,8.04-11.95,11.45-18.3c1.53-2.85,2.96-5.75,5-8.34c-3.76,8.75-7.21,17.65-13.02,25.35
	c-0.85,1.12-1.95,1.8-3.45,1.14C321.85,295.75,321.86,295.9,321.86,295.9z"/>
<path class="st0" d="M95.97,323.74c2.56,4.71,3.12,9.74,3.17,14.85c0.01,1.38-0.02,2.89-1.91,2.75c-1.71-0.12-1.25-1.63-1.25-2.72
	C95.96,333.66,95.97,328.7,95.97,323.74z"/>
<path class="st1" d="M317.24,291.13c0.67-0.78,1.35-1.57,2.01-2.34c1.32-0.45,2.64-0.91,4.05-1.4c-0.03,2.5-1.73,4.02-2.51,5.94
	c-0.64,1.57-1.9,2.32-3.52,1.39C315.4,293.63,316.13,292.33,317.24,291.13z"/>
<path class="st1" d="M336.68,294.54c-0.46,1.72-0.87,3.46-1.4,5.17c-0.25,0.83,0.05,2.22-1.43,2.1c-0.58-0.04-1.23-0.52-1.64-0.98
	c-0.85-0.95-0.25-1.79,0.4-2.59c1.12-1.38,2.22-2.78,3.33-4.16C336.19,294.23,336.44,294.39,336.68,294.54z"/>
<path class="st1" d="M584.8,121.63c-3.46-1.97-4-4.64-2.21-8.14c0.98-1.92-0.44-3.41-1.55-4.87c-3.79-4.98-7.6-9.92-10.5-15.55
	c-2.15-4.17-7.24-4.88-13.25-2.34c-2.59,1.1-5.07,2.69-7.86,0.39c2.55-2.26,6.6-2.22,8.45-5.49c6.45-2.17,13.79-3.11,16.05-11.19
	c-1.3,2.25-5.37-0.5-5.84,3.06c-0.39,2.96-2.6,3.91-4.97,4.93c-1.87,0.8-4.27,0.91-5.23,3.23c-5.52,2.13-10.89,4.74-17.12,4.08
	c-2.35-0.25-4.66-0.25-6.51-1.96c-1.49-1.37-3.17-3.1-2.94-4.96c0.28-2.27,2.76-0.71,4.2-1.19c8.23-2.69,15.65-7.14,23.33-10.96
	c2.93-1.46,6.01-2.69,8.86-4.32c0.95-0.54,2.37-1.07,1.94-2.51c-0.44-1.44-1.81-1.25-2.95-0.89c-4.03,1.28-7.84,0.48-11.7-0.85
	c-3.63-1.24-7.34-2.04-11.24-0.92c-2.79,0.8-5.19-0.51-7.51-1.89c-4.69-2.77-9.54-4.54-15-2.23c-0.95-8.15,5.04-14.64,12.79-14.08
	c4.8,0.35,9.61,0.69,14.4,1.22c2.64,0.29,4.86-0.59,7.11-1.7c1.59-0.78,3.11-2.03,5.14-1.34c-6.01,4.93-7.12,7.72-4.42,12.19
	c1.79,2.97,4.73,1.8,7.19,1.19c4.07-1.02,6.89-3.23,5.88-8.55c-2.06,1.59-0.71,4.48-2.88,5.58c-1.14,0.58-1.82,1-1.47-0.81
	l-0.17,0.17c4.64-2.47,0.08-4.98,0.03-7.88c5.45,1.95,11.3,2.61,14.69,8.19c0.69,1.14,2.36,1.75,3.65,2.48
	c4.34,2.45,5.08,4.88,2.76,9.28c-1.93,3.65-1.93,3.72,2.05,3.53c0.95-0.04,1.18,0.53,1.46,0.99c4.29,7.24,11.92,9.79,18.83,13.27
	c3.17,1.59,6.5,2.45,2.53,6.61c-0.54,0.56-0.35,1.82-0.54,3.03c8.8-6.29,17.33-3.33,25.24,0.61c8.91,4.44,17.09,10.31,24.75,16.68
	c5.07,4.22,10.51,7.49,16.56,9.94c10.41,4.21,17.22,12.11,21.98,21.94c2.01,4.17,3.41,8.59,6.31,12.37
	c2.55,3.32,1.31,7.62,1.8,11.71c2.12-1.33,0.59-3.42,2.03-5.07c0.72,1.96,1.24,3.8,2.09,5.47c0.4,0.79-0.23,3.87,2.38,1.59
	c0.13,1.5,0.97,2.66,1.93,3.72c4.01,4.42,4.16,10.21,5.21,15.56c3.44,17.41,7.04,34.77,13.73,51.29
	c3.65,8.99,7.85,17.66,17.78,21.56c0.95,0.37,1.62,1.12,1.36,2.35c-0.55,2.56,1.29,1.46,1.96,1.02c4.41-2.89,9.58-2.45,15.02-4.15
	c-8.23,8.65-21.45,10.46-31.67,4.72c-15.65-8.8-25.97-22.39-34.01-38.03c-4.4-8.55-8.63-17.24-15.77-24
	c-1.44-1.36-2.89-3.07-4.65-3.67c-3.53-1.2-3.79-3.65-3.52-6.61c4.08-6.26,6.55-13.15,8.06-20.43c1.27-6.12,1.34-12.43,3.89-18.36
	c1.95-4.53,1.22-9.26-2.04-13.52c3,6.92,1.31,13.3-1.7,19.55c-0.27,0.56-0.22,1.3-0.25,1.96c-0.3,9.26-2.89,17.9-6.87,26.2
	c-0.69,1.44-1.81,2.87-0.99,4.67c-5.51,10.17-4.3,13.16,3.46,16.21c2.56,1,6.27,3.21,4.41,7.65c-2.58-4.18-7.03-5.3-10.7-7.69
	c-0.25,0.42-0.51,0.83-0.76,1.25c3.82,2.15,7.64,4.29,11.46,6.44c7.21,7.51,11.83,16.79,17.37,25.43c2.12,3.31,3.72,6.97,2.52,11.27
	c-1.37,4.87-1.11,9.81-0.36,14.82c0.87,5.87-3.76,12.68-8.41,13.05c-1.06,0.08-2.44,0.73-2.97-0.89c-0.39-1.17-0.1-2.25,0.71-3.24
	c6.16-7.5,7.29-11.53,5.73-21.05c-1.18,2.36-0.81,4.47-0.64,6.4c0.67,7.55-4.25,12.55-8.54,17.42c-1.33,1.5-5.72,0.57-8.64,0.22
	c-0.68-0.08-2.31-2.64-0.73-3.56c1.5-0.88,1.85-2.55,3.34-3.25c7.36-3.44,9.08-10.13,9.63-17.31c0.57-7.49-0.51-13.81-7.79-18.79
	c-9.41-6.44-17.76-14.44-26.55-21.75c1.07-2.46,3.04-0.96,5.9-1.09c-3.1-1.27-3.09-5.39-7.19-3.36c-0.53,0.26-4.16-4-5.13-6.62
	c-5.11-13.8-9.37-27.88-10.98-42.59c-0.43-3.93,0.04-7.89,0.49-11.85c-3,3.41-1.07,7.69-2.26,11.5c-2.7-1.49-0.23-4.86-2.28-6.48
	c-2.66,0.28,2.46,5.77-3,4.27c-0.19-0.05,0.34,1.77,0.99,2.45c6.56,6.95,7.43,16,9.4,24.75c-3.35,1.06-5.71-1.81-8.66-1.73
	c0,0,0.19,0.19,0.19,0.19c-1.33-4.06-2.69-8.11-3.97-12.19c-1.1-3.5-3.81-4.98-6.93-6.54c-13.32-6.66-24.88-15.56-33.91-27.78
	c6.14,0.12,7.81-1.39,8.83-7.61c0.39-2.41,0.49-4.88,2.91-6.52c6.79-4.59,9.18-12.01-0.71-20.34c3.8,6.8,2.3,11.92-1.33,17.32
	c-1.88,2.79-1.68,6.95-2.51,10.46c-1.29,5.48-3.03,6.23-7.97,3.57c-3.36-1.81-6.68-3.72-10.38-4.74c-3.65-1.01-6.36-4.3-10.99-3.98
	c3.42-4.8,7.45-1.48,10.97-1.72c0.9,2.46,2.95,3.39,5.29,3.56c0.94,0.07,1.67-1.05,1.78-2.09c0.66-6.25,1.27-12.5,1.9-18.75
	c-2.56,5-2.87,10.37-2.99,15.73c-0.07,3.11-0.64,4.64-3.79,2.27C586.41,121.73,585.69,121.36,584.8,121.63z M704.68,171.51
	c-0.99-4.29-4.85-5.86-7.79-8.31c2.46,2.91,4.46,6.25,7.89,8.22c-0.24,1.15,0.62,1.8,1.17,2.6c5.69,8.43,10.84,17.02,11.09,27.71
	c0.07,3.19,1.05,6.44,3.49,8.97c-2.79-6.19-1.23-13.21-3.82-19.33C713.67,184.19,711.46,176.46,704.68,171.51z M673.49,203.67
	c-0.15-3.8-0.2-6.67,2.66-10.34c2.79-3.57,2.91-9.72,1.4-14.89c-0.62-2.12-0.99-4.22-0.15-6.34c2.79-7.03,4.22-14.24,3.46-21.86
	c-0.32-3.23,2.18-6.43,0.56-9.73c-4.02,8.09,0.35,17.5-4.53,26.87c-0.16-3.62-0.26-5.81-0.37-8.38c-1.85,1.65-1.52,3.39-1.63,4.99
	c-0.34,5.18,0.5,10.25,1.41,15.31c0.72,3.99,1.49,8.63-1.17,11.53C671.17,195.13,671.27,199.1,673.49,203.67z M660.17,145.2
	c2.79,14.56,3.41,29.14,1.51,43.85c-0.29,2.24-1.12,3.74-2.52,5.06c-1.03,0.98-2.98,1.42-1.4,3.29c1.06,1.25,2.4,3.19,3.6,3.17
	c1.92-0.02,2.22-2.54,1.94-3.98c-1.37-7.19,0.79-14.18,0.92-21.27C664.41,165.08,663.6,154.98,660.17,145.2z M699.35,233.6
	c-1.19-4.83-6.93-6.17-7.27-11.3c-1.66,2.33-2.3-2.69-3.28-0.65c-1.65,3.47-3.78,1.9-5.62,0.84c-2.23-1.28-4.16-3.08-6.22-4.65
	C682.19,226.51,693.46,225.9,699.35,233.6z M694,270.68c4.55-4.64,6.45-10.32,6.26-16.76C698.49,259.61,697.41,265.56,694,270.68z
	 M648.07,155.26c1.89-6.45,3.99-12.98,1.78-19.83C650.42,142.12,648.09,148.54,648.07,155.26z M694.18,235.27
	c2.18,2.65,4.78,3.59,5.36,6.23c0.17,0.78,0.48,2.04,1.29,1.64c0.7-0.34,0.35-1.95,1.84-2.31c0.49-0.12-0.25-1.96-0.74-1.93
	C698.98,239.08,697.83,235.73,694.18,235.27z M597.5,88.67c-1.7,3.18-4.58,5.32-6.92,7.94C594.54,95.41,596.88,92.79,597.5,88.67z
	 M572.52,87.73c2.76-2.16,5.53-4.33,8.29-6.49C577.14,82.28,574,84,572.52,87.73z M555.43,77.61c-3.05,1.05-6.09,2.1-9.14,3.15
	C549.94,81.46,552.96,80.34,555.43,77.61z"/>
<path class="st1" d="M640.72,181.39c1.06,2.63,3.75,2.33,5.79,3.19c1.07,0.45,2.55,0.61,2.49,1.96c-0.03,0.64-1.27,1.33-2.07,1.83
	c-5,3.15-10.62,4.54-16.31,5.83c-5.43,1.24-7.4,4.81-6,10.82c1.27-1.77-0.38-4.17,2.04-5.32c-0.6,4.11,0.87,7.39,3.11,10.56
	c2.9,4.12,2.34,8.99,1.63,13.53c-1.28,8.27-1.9,16.44,0.13,24.66c0.27,1.09,0.52,2.77-0.06,3.39c-3.88,4.17-3.78,9.6-4.68,15.06
	c-5.41-6.82-1.89-14.07-1.97-21.34c-1.78,0.86-1.78,2.18-1.7,3.05c0.82,8.86-4.58,15.58-7.8,23.04c-1.19,2.76-3.99,3.05-6.33,3.23
	c-5.46,0.42-10.97,0.32-16.45,0.48c-1.31,0.04-2.39-0.36-2.83-1.56c-0.56-1.55,1.27-1.12,1.69-1.74c2.42-3.61,6.55-3.22,9.77-3.34
	c6.88-0.26,10.4-4.64,14.1-9.21c-4.65,1.34-6.24,7.83-12.3,7.19c3.19-3.17,7.39-4.81,10.15-8.17c7.06-8.61,5.94-18.13,3.01-27.83
	c-1.87-6.18-3.79-12.35-5.68-18.53c-0.64-2.09-1.05-4.19-0.16-6.72c2.25,2.26,1.66,5.85,4.35,7.91c-0.18-5.53-3.22-9.69-5.85-13.83
	c-2-3.16-1.01-5.57,0.38-8.19c4.12-7.75,8.24-15.52,12.57-23.16c1.06-1.88,1.34-5.4,3.99-5.05c3.49,0.46,7.3,1.55,9.15,5.23
	c0.88,1.75,1.33,3.71,2.01,5.57c1,2.73,1.18,5.9,4.05,7.64C640.91,181.59,640.72,181.39,640.72,181.39z M626.89,222.41
	c-2.98,4.28-0.74,8.47-0.1,12.67c0-4.25,0-8.51,0-12.76c4.09-3.77,4.48-7.15,1-10.51C630.54,215.66,627.69,218.93,626.89,222.41z"/>
<path class="st1" d="M561.49,132.44c1.95-2.09,4.17-2.86,6.79-2.57c4.22,0.47,8.51,1.58,12.19-1.95c1.04-1,2.51-0.12,3.63,0.64
	c0.64,0.43,0.79,1.06,0.42,1.7c-0.82,1.43-1.63,3.16-3.53,3.08c-3.13-0.14-6.28-0.41-9.34-1.03
	C568.21,131.59,564.87,130.84,561.49,132.44z"/>
<path class="st1" d="M554.83,66.98c-5.51,5.34-8.76,5.34-13.53-0.03C545.84,66.05,550.29,64.06,554.83,66.98z"/>
<path class="st1" d="M564.99,50.75c-1.74-0.57-3.15,0.66-4.68,1.04c-1.74,0.43-2.97,0.66-3.23-1.43c-0.25-2.01,1.24-2.31,2.83-2.58
	c1.38-0.24,2.37,0.74,3.8,0.95c0.22-2.65-2.8-2.68-3.26-4.51c3.96,0.16,4.53,1.02,4.37,6.69C564.81,50.92,564.99,50.75,564.99,50.75
	z"/>
<path class="st1" d="M524.96,62.47c4.71,0.04,9.04,1.27,12.84,4.08C532.84,67.27,528.54,65.98,524.96,62.47z"/>
<path class="st0" d="M680.93,198.86c2.92,0.08,4.71,1.83,6.81,4.46C684.65,202.21,682.18,201.52,680.93,198.86z"/>
<path class="st0" d="M990.47,359.11c-0.63,1.85-1.25,3.7-1.89,5.58c1.7,0.46,1.36-2.94,2.91-1.64c2.07,1.74,0.61,3.98,0.05,6.01
	c-0.51,1.87-2.13,2.77-3.33,1.57c-4.21-4.24-10.98-2.14-14.93-6.97c-0.19,0.81-0.32,1.24-0.3,1.25c6.86,2.51,6.01,8.57,6.29,13.97
	c0.33,6.42-0.52,13,3.21,18.85c0.64,1.01,0.69,2.26-0.05,3.3c-2.99,4.17-2.99,8.92-3.25,13.78c-0.18,3.3-1.56,6.36-5.19,8.13
	c-2.1,1.03-5.08,1.49-5.76,4.8c-0.28,1.34-2.07,2.2-3.72,1.87c-2.08-0.41-1.07-2.14-1.08-3.27c-0.02-5.07-3.54-2.7-5.42-2.22
	c-1.78,0.45-3.22,2.22-5.05,3.58c-0.64-3.39,1.05-5.28,3.25-6.85c3.25-2.31,6.53-4.57,9.85-6.79c4.22-2.82,5.57-6.65,4.74-11.62
	c-1.81-10.93-6.73-20.78-10.77-30.91c-2.19-5.49-3.95-10.91-3.57-16.84c0.13-1.97-0.52-3.49-1.65-5.03
	c-8.7-11.9-15.59-25.13-26.42-35.47c-1.88-1.8-3.6-3.92-3.98-6.74c-0.06-0.44-0.09-1.83-0.74-1.12c-1.17,1.29-1.66,0.61-2.07-0.31
	c-0.45-1.02,0.48-1.34,1.23-1.75c1.11-0.61,2.55-0.83,3.07-2.25c7.2-3.55,14.68-6.78,17.44-15.36c-1.4-2.14-0.86-3.49,1.43-4.7
	c12.12-6.37,22.11-15.28,30.25-26.22c1.45-1.95,2.56-1.97,4.49-0.97c5.15,2.67,10.51,4.96,15.58,7.77
	c26.72,14.77,49.8,33.97,70.23,56.62c10.65,11.81,21.3,23.84,35.35,32.02c1.21,0.71,3.42,1.35,1.99,3.69
	c3.7-1.24,4.78,2.67,6.88,3.47c3.24,1.23,6.56,1.16,7.14,5.48c0.06,0.41-0.05,1.22,0.47,0.79c3.87-3.24,5.61,1.16,7.87,2.42
	c12.02,6.73,22.99,15.33,35.72,20.76c18.24,7.77,37.76,10.08,57.28,12.12c7.57,0.79,15.16,1.35,23.05,2.04
	c-2,2.76-4.83,2.46-7.08,2.62c-38.11,2.65-76.11,2.67-113.48-6.7c-12.54-3.14-24.85-7.23-37.33-10.63
	c-2.43-0.66-3.44-1.57-3.04-4.28c-0.85,1.47-0.47,3.98-3.23,2.69c-3.28-1.54-9.28,0.16-7.8-7.31c-0.69,3.92-1.95,5.29-5.95,4.03
	c-4.68-1.48-9.75-1.75-14.64-2.59c-2.21-0.38-5.39,0-2.63-4.52c-2.22,1.23-1.56,3.99-3.81,3.57c-0.47-0.09-0.65-1.67-0.97-2.62
	c-1.28,0.26,0.01,2.25-1.67,2.4c0-1.79,0-3.57,0-5.35c-1.26,2.41-0.74,5.42-4.06,6.96c-4.11,1.92-2.8,5.85-0.52,7.72
	c8.14,6.67,8.25,15.88,8.21,24.85c-0.02,4.22,3.82,9.06-1.17,12.95c-2.58,2.01-3.32,6.01-7.29,6.63c-1.34-0.82-0.71-2.7-1.66-3.77
	c-2.04,3.7-6.24,2.21-9.36,4.39c-0.32-3.95,1.66-6.41,3.43-8.93c5.69-8.1,7.02-14.33-1.17-22.46c-6.36-6.32-12.12-13.23-18.21-19.82
	c-3.02-3.27-5.74-6.96-10.58-7.85c-1.67-0.31-3.03-1.83-2.49-3.21c2.05-5.25-2.48-7.84-4.22-11.53c-1.47-7.1-0.39-13.97,0.89-21.05
	c0.83-4.57,2.52-9.87-0.92-14.46c-0.56-8.02,4.53-15.37,2.47-23.88c-0.49,1.92-1,3.57-1.33,5.26c-1.11,5.77-2.16,11.55-3.22,17.31
	c-0.18-6.96-1.87-13.88,0.05-20.87c-2.43,9.64-2.34,13.57,0.05,20.78c0.23,1-0.25,2.24,0.98,2.9c2.52,4,0.81,8.08,0.63,12.24
	c-0.18,4.24-1.79,1.6-4.08,0.89c3.47,3.04,3.14,6.1,2.75,9.45C988.19,351.61,988,355.64,990.47,359.11z M1034.69,357.15
	c-7.28,2.4-7.82,9.41-3.46,20.04C1029.35,370.23,1027.92,363.34,1034.69,357.15z M1030.57,332.19c1.91-1.7,2.98-3.25,2.38-6.21
	c-1.06-5.21-0.6-5.31-2.37-7.82C1032.5,322.83,1031.91,327.46,1030.57,332.19z M998.24,283.01c5.45-0.17,10.89-0.09,16.29,0.83
	C1009.19,281.54,1003.73,281.97,998.24,283.01z M949.72,289.51c9.13,1.09,11.19,0.81,14.97-2.05
	C959.95,289.99,954.78,288.85,949.72,289.51z M1037.93,332.12c-0.11,4.51-3.09,7.5-5.79,10.63
	C1036.15,340.31,1039.18,337.36,1037.93,332.12z"/>
<path class="st1" d="M938.69,279.96c0.45,0.99,1.18,2.3,2.32,3.64c1.03,1.21,2.09,2.07,2.93,2.66c-2.8,8.71-10.4,11.99-17.71,15.59
	c-2.86-0.02-5.4,2.45-8.72,0.28c-1.5-0.98,0.44,2.32-1.9,2.82c-0.71-0.08,0.53-2.18-1.01-2.3c-1.51,1.08,0.18,3.35-0.87,3.93
	c-2.59,1.41-0.91-2.32-2.49-2.44c-2.25,6.46-7.7,11.56-7.82,19c-2.44-0.71-1.91-3.31-4.43-4.81c-1.64,2.41-3.45,5.06-5.25,7.71
	c-0.51-0.06-1.01-0.13-1.52-0.19c0.18-4.82-2.02-5.89-5.82-4.13c0.56-2.7,3.23-3.65,3.11-6.03c-2.51-1.89-4.54,3.51-7.05,0.34
	l-0.18,0.17c4.83-4.1,9.21-8.62,12.52-14.06c0.9-1.47,1.76-2.89,3.69-3.1l-0.11-0.16c0.41,2.73,2.3,2,3.66,1.26
	c2.5-1.36,5.26-2.52,6.65-5.31l-0.18,0.15c3.93-0.84,7.02-3.17,10.05-5.67c-2.16,0.62-4.1,2.26-6.16,2.44
	c-3.7,0.33-0.41-3.73-2.33-4.88c-1.08,1.2,0.43,3.23-1.55,3.93l0.17,0.09c-1.43-1.68-3.46-4.11-5.8-7.11
	c-7.66-9.84-8.64-12.94-9.06-14.93c-0.43-2.01-1.23-5.77,0.58-9.63c0,0,2.07-4.41,6.94-6.55
	C908.82,249.38,923.92,260.8,938.69,279.96z"/>
<path class="st1" d="M882.82,315.99c-1.56,0.21-2.85,1.63-2.21,2.59c1.27,1.94,3.21,0,5.46-0.09c-1.35,2.04-2.52,3.82-3.91,5.94
	c3.21,0.97,4.9-2.44,7.88-1.64c-2.73,3.43-6.15,5.89-9.34,8.58c-0.73,0.62-2.16,1.63-2.46,0.57c-0.98-3.43-5.54-5.99-2.91-10.27
	c2.99-4.87,4.35-9.92,2.42-15.8c3.16,3.7,7.09,1.74,10.86,1.84c-1.47,3.51-5.78,4.53-5.97,8.45
	C882.64,316.16,882.82,315.99,882.82,315.99z"/>
<path class="st0" d="M898.61,299.26c2.79-3.38,6.94-5.05,10.05-8.03c0,0-0.17-0.09-0.17-0.09c0.58,1.37,0.84,2.75-0.01,4.12
	l0.18-0.15c-3.77,0.34-5.73,5.29-10.15,3.99L898.61,299.26z"/>
<path class="st0" d="M1002.26,173.21c1.5,0.29,4.02-1.05,4.1,2.37c0.08,3.24-3.1,6.37-6.87,6.37c-2.47,0-4.67-0.69-5.02-3.64
	C994.1,175.23,996.81,173.44,1002.26,173.21z"/>
<path d="M277.67,348.52c-3.04-1.91-2.19-5.19-2.77-7.95c-0.37-1.74-0.63-3.51-0.94-5.27l-0.11,0.11c2.89-1.14,2.07-3.74,2.4-5.92
	c0.27-1.77,0.78-3.5,1.55-5.22c-1.3,8.13-1.43,16.24-0.22,24.34L277.67,348.52z"/>
<path d="M277.57,348.62c0.15,0.29,0.24,0.64,0.45,0.87c0.82,0.91,1.01,0.17,1.02-0.48c0.03-3.42,0.02-6.85,0.8-10.27
	c-1.3,9.99,1.56,19.82,0.71,29.83c1.18-7.03-2.73-13.21-2.9-20.02C277.67,348.52,277.57,348.62,277.57,348.62z"/>
<path d="M273.96,335.3c-3.7-6.28-5.34-12.89-3.01-20.1c0,1.92,0,3.85,0,5.74c1.81,0.56,0.67-1.58,2.47-1.64
	c-2.59,5.54,0.5,10.7,0.43,16.1C273.85,335.41,273.96,335.3,273.96,335.3z"/>
<path d="M434.95,352.94c0.17,1.54,2.38,1.76,2.27,3.53c-0.05,0.88-0.23,1.63-1.03,2.09c-0.64,0.37-1.62,0.32-1.75-0.26
	c-1.07-4.95-4.95-1.37-7.76-2.59c3.09-0.95,5.77-1.77,8.44-2.6C435.13,353.1,434.95,352.94,434.95,352.94z"/>
<path d="M376.11,381.43c-1.62,3.03-4.62,1.58-6.92,1.85c-3,0.35-6.11-0.26-9.17-0.47c0.32-1.2,0.64-2.39,0.96-3.59
	c1.81-0.3,1.99-0.23,1.46,1.14c-0.67,1.71,0.47,1.57,1.4,1.61C367.95,382.15,372.08,382.85,376.11,381.43z"/>
<path d="M360.99,379.23c-0.32,1.2-0.64,2.39-0.96,3.59c-1.43,1.67-2.57,3.69-4.99,4.18c1.61-2.97,2.9-6.19,4.96-8.81
	C361.27,376.56,360.56,378.91,360.99,379.23z"/>
<path d="M282.4,390.27c0-4.94,0-9.89,0-14.83c1.14,4.93,1.77,9.85-0.11,14.72C282.3,390.17,282.4,390.27,282.4,390.27z"/>
<path d="M324.86,355.67c-0.16,0.39-0.22,0.9-0.5,1.15c-2.41,2.1-4.87,4.16-7.2,6.13c-0.14-0.22,0.5-0.68,0.9-1.11
	c2.08-2.21,4.21-4.37,6.32-6.55C324.54,355.42,324.7,355.54,324.86,355.67z"/>
<path d="M311.95,365.01c-1.53,3.64-0.63,7.25,0,10.87C309.64,370.87,309.63,369.1,311.95,365.01z"/>
<path d="M288.74,372.42c-2.91-3.27-2.64-7.12-2.23-10.99C287.3,365.08,287.13,368.91,288.74,372.42z"/>
<path d="M191.57,345.35c0.75,3.31,2.38,6.05,5.03,8.15C192.92,352.05,191.37,349.26,191.57,345.35z"/>
<path d="M167.54,273.72c7.75,7.74,15.21,15.79,19.95,25.97C181.59,290.45,174.05,282.53,167.54,273.72z"/>
<path d="M189.25,291.18c-3.33-4.8-4.54-10.65-7.7-15.52c3.73,4.61,7.27,9.32,7.59,15.61C189.14,291.26,189.25,291.18,189.25,291.18z
	"/>
<path d="M176.44,296.16c-3.22-3.39-6.45-6.78-9.67-10.18C171.02,288.43,174.61,291.49,176.44,296.16z"/>
<path d="M147.99,294.17c2.64,2.92,5.7,5.47,6.98,9.64c-2.63-2.96-5.27-5.91-7.9-8.87C147.37,294.69,147.68,294.43,147.99,294.17z"/>
<path d="M231.28,232.61c4.14,15.3,8.52,30.51,10.09,46.35C238.13,263.46,234.08,248.16,231.28,232.61z"/>
<path d="M242.3,274.87c-0.5-7.62-1-15.24-1.51-22.86C243.98,259.33,242.92,267.03,242.3,274.87z"/>
<path d="M233.19,261.27c-2.73-3.54-3.33-7.76-3.83-12.02c1.67,3.9,3.97,7.6,3.73,12.1C233.08,261.35,233.19,261.27,233.19,261.27z"
	/>
<path d="M222.86,267.73c2.49,3.81,4.99,7.6,6.05,12.13C226.13,276.19,223.83,272.29,222.86,267.73z"/>
<path d="M264.48,251.58c0.41,1.88,2.78,2.63,2.75,4.76c-3.51-2.53-6.89-5.17-8.1-9.63c1.82,1.66,3.65,3.32,5.47,4.98L264.48,251.58z
	"/>
<path d="M321.04,255.16c5.96,7.97,7.04,17.36,7.72,26.84c0.06,0.89-0.79,1.36-1.74,1.29c0.66-8.43-1.54-16.3-4.78-23.95
	C321.66,257.99,320.69,256.77,321.04,255.16z"/>
<path d="M309.09,291.17c2.59-7.57,5.19-15.13,7.78-22.7c-1.15,8.11-3.03,15.94-7.73,22.74
	C309.14,291.21,309.09,291.17,309.09,291.17z"/>
<path d="M322.65,269.63c0.06,6.29-2.3,11.65-6.42,16.33C318.89,280.72,320.97,275.25,322.65,269.63z"/>
<path d="M264.6,251.7c-1.18-5.89-2.36-11.79-3.54-17.68c0.54-0.09,1.07-0.18,1.61-0.27c0.13,6.01,3.49,11.5,1.8,17.82
	C264.48,251.58,264.6,251.7,264.6,251.7z"/>
<path d="M269.5,253.35c-0.59-3.73-0.45-7.47,0.75-11.28c0.22,3.8,0.44,7.61,0.66,11.41C270.44,253.44,269.97,253.4,269.5,253.35z"/>
<path d="M214.42,287.41c-5.58-11.39-9.27-23.37-11.46-35.83C206.78,263.52,210.6,275.47,214.42,287.41z"/>
<path d="M208.86,253.1c1.62,4.68,3.89,9.15,3.57,14.44c-1.57-4.69-3.15-9.38-4.72-14.07C208.09,253.35,208.47,253.23,208.86,253.1z"
	/>
<path d="M200.68,266.89c-3.07-2.91-4.87-6.42-5.2-10.64C197.93,259.44,198.69,263.49,200.68,266.89z"/>
<path d="M348.71,310.66c-1.31-1.22-0.5-2.39,0.09-3.55c2.56-5.12,5.12-10.24,8.1-15.18c-1.45,6.77-5.37,12.5-8.33,18.64
	C348.59,310.58,348.71,310.66,348.71,310.66z"/>
<path d="M349.46,298.65c0.78-4.48,2.69-8.49,5.24-12.23C353.98,290.91,351.79,294.81,349.46,298.65z"/>
<path d="M362.19,289.26c0.25,4.57-2.26,7.97-5.17,11.22C358.74,296.73,360.46,292.99,362.19,289.26z"/>
<path d="M141.26,325.1c-3.32-0.38-3.62-3.51-4.95-5.6c-2.52-3.96-4.66-8.15-6.22-13.96c3.03,3.49,3.56,6.86,5.32,9.51
	c1.47,2.21,1.78,5.26,5.05,6.28c1.58,0.5,1.11,2.44,0.68,3.87C141.14,325.22,141.26,325.1,141.26,325.1z"/>
<path d="M144.54,322.53c-4.02-4.55-5.85-9.99-6.68-15.84C140.08,311.98,142.31,317.26,144.54,322.53z"/>
<path d="M376.87,299.86c-1.84,4.29-3.54,8.66-6.96,12.24c1.94-4.3,3.88-8.59,5.82-12.89C376.11,299.42,376.49,299.64,376.87,299.86z
	"/>
<path d="M673.49,203.67c-2.22-4.57-2.32-8.53,1.64-12.85c2.66-2.9,1.89-7.53,1.17-11.53c-0.91-5.06-1.75-10.13-1.41-15.31
	c0.1-1.6-0.22-3.34,1.63-4.99c0.11,2.57,0.21,4.77,0.37,8.38c4.88-9.36,0.51-18.78,4.53-26.87c1.62,3.3-0.89,6.5-0.56,9.73
	c0.76,7.62-0.68,14.83-3.46,21.86c-0.84,2.12-0.47,4.22,0.15,6.34c1.51,5.18,1.39,11.32-1.4,14.89
	C673.29,197,673.34,199.87,673.49,203.67z"/>
<path d="M660.17,145.2c3.43,9.78,4.24,19.88,4.06,30.13c-0.13,7.09-2.29,14.08-0.92,21.27c0.28,1.45-0.03,3.96-1.94,3.98
	c-1.2,0.02-2.54-1.92-3.6-3.17c-1.58-1.87,0.36-2.31,1.4-3.29c1.4-1.32,2.23-2.82,2.52-5.06
	C663.58,174.33,662.96,159.75,660.17,145.2z"/>
<path d="M680.89,189.51c-0.81-1.79,0.3-3.22,0.99-4.67c3.98-8.3,6.57-16.95,6.87-26.2c0.02-0.66-0.03-1.4,0.25-1.96
	c3.01-6.26,4.7-12.64,1.7-19.55c3.26,4.26,3.98,8.99,2.04,13.52c-2.55,5.93-2.62,12.24-3.89,18.36c-1.51,7.28-3.98,14.17-8.06,20.43
	C680.78,189.43,680.89,189.51,680.89,189.51z"/>
<path d="M704.68,171.51c6.77,4.95,8.99,12.68,12.03,19.86c2.59,6.12,1.03,13.14,3.82,19.33c-2.43-2.53-3.41-5.78-3.49-8.97
	c-0.25-10.68-5.4-19.27-11.09-27.71c-0.55-0.81-1.4-1.46-1.17-2.6L704.68,171.51z"/>
<path d="M699.35,233.6c-5.89-7.7-17.16-7.08-22.39-15.76c2.06,1.57,3.99,3.37,6.22,4.65c1.84,1.06,3.97,2.63,5.62-0.84
	c0.98-2.05,1.62,2.97,3.28,0.65C692.42,227.43,698.16,228.76,699.35,233.6z"/>
<path d="M557.89,85.65c0.96-2.32,3.36-2.43,5.23-3.23c2.37-1.02,4.57-1.96,4.97-4.93c0.47-3.55,4.54-0.81,5.84-3.06
	c-2.27,8.08-9.6,9.02-16.05,11.19C557.88,85.63,557.89,85.65,557.89,85.65z"/>
<path d="M584.8,121.63c0.89-0.27,1.6,0.1,2.28,0.61c3.15,2.37,3.72,0.85,3.79-2.27c0.12-5.36,0.43-10.73,2.99-15.73
	c-0.63,6.25-1.24,12.5-1.9,18.75c-0.11,1.04-0.84,2.16-1.78,2.09c-2.33-0.17-4.39-1.1-5.29-3.56
	C584.9,121.52,584.8,121.63,584.8,121.63z"/>
<path d="M694,270.68c3.41-5.12,4.49-11.07,6.26-16.76C700.45,260.35,698.55,266.03,694,270.68z"/>
<path d="M648.07,155.26c0.02-6.72,2.35-13.14,1.78-19.83C652.06,142.28,649.95,148.81,648.07,155.26z"/>
<path d="M688.77,213.36c-3.82-2.15-7.64-4.29-11.46-6.44c0.25-0.42,0.51-0.83,0.76-1.25C681.73,208.07,686.18,209.19,688.77,213.36
	C688.76,213.37,688.77,213.36,688.77,213.36z"/>
<path d="M694.18,235.27c3.65,0.46,4.8,3.8,7.74,3.64c0.49-0.03,1.23,1.81,0.74,1.93c-1.49,0.36-1.14,1.97-1.84,2.31
	c-0.81,0.39-1.11-0.86-1.29-1.64C698.96,238.86,696.36,237.92,694.18,235.27z"/>
<path d="M704.78,171.42c-3.42-1.97-5.43-5.32-7.89-8.22c2.93,2.45,6.79,4.01,7.79,8.31C704.68,171.51,704.78,171.42,704.78,171.42z"
	/>
<path d="M597.5,88.67c-0.62,4.12-2.96,6.74-6.92,7.94C592.92,93.99,595.8,91.85,597.5,88.67z"/>
<path d="M572.52,87.73c1.48-3.73,4.62-5.44,8.29-6.49C578.05,83.4,575.28,85.57,572.52,87.73z"/>
<path d="M555.43,77.61c-2.47,2.73-5.49,3.86-9.14,3.15C549.34,79.71,552.38,78.66,555.43,77.61z"/>
<path d="M626.79,222.32c0,4.25,0,8.51,0,12.76c-0.64-4.2-2.88-8.39,0.1-12.67L626.79,222.32z"/>
<path d="M626.89,222.41c0.8-3.48,3.65-6.75,0.9-10.6c3.47,3.36,3.08,6.73-1,10.51C626.79,222.32,626.89,222.41,626.89,222.41z"/>
<path d="M990.33,323.7c3.44,4.59,1.75,9.89,0.92,14.46c-1.28,7.08-2.36,13.95-0.89,21.05c0,0,0.11-0.1,0.11-0.09
	c-2.48-3.47-2.29-7.5-1.83-11.34c0.4-3.35,0.72-6.41-2.75-9.45c2.29,0.72,3.9,3.35,4.08-0.89c0.18-4.16,1.89-8.25-0.63-12.24
	C989.67,324.69,990,324.2,990.33,323.7z"/>
<path d="M990.33,323.7c-0.33,0.5-0.66,0.99-0.99,1.49c-1.23-0.66-0.76-1.9-0.98-2.9l-0.11,0.11c1.07-5.77,2.12-11.55,3.23-17.32
	c0.33-1.69,0.84-3.34,1.33-5.26C994.87,308.33,989.77,315.68,990.33,323.7z"/>
<path d="M1034.69,357.15c-6.77,6.2-5.34,13.09-3.46,20.04C1026.87,366.56,1027.41,359.55,1034.69,357.15z"/>
<path d="M1030.57,332.19c1.34-4.73,1.94-9.36,0.02-14.02c1.76,2.51,1.31,2.6,2.37,7.82
	C1033.55,328.94,1032.48,330.49,1030.57,332.19z"/>
<path d="M988.36,322.29c-2.4-7.21-2.49-11.13-0.05-20.78c-1.92,6.99-0.23,13.92-0.05,20.87
	C988.25,322.4,988.36,322.29,988.36,322.29z"/>
<path d="M998.24,283.01c5.49-1.04,10.95-1.47,16.29,0.83C1009.13,282.93,1003.69,282.84,998.24,283.01z"/>
<path d="M949.72,289.51c5.06-0.66,10.23,0.48,14.97-2.05C960.91,290.32,958.85,290.6,949.72,289.51z"/>
<path d="M1037.93,332.12c1.25,5.24-1.78,8.2-5.79,10.63C1034.84,339.62,1037.82,336.63,1037.93,332.12z"/>
<path d="M931.56,272.28c1.1,0.9,5.81-4.79,3.15,1.93c-0.2,0.51,1.03,0.7,2.88,0.27c-2.14,3.71-2.12,3.69-5.07,0.95
	c-2.55-2.36-4.34-5.08-4.04-8.7c0.25-3.05-2.35-5.48-1.73-9.35c1.21,2.63,2.12,4.64,3.09,6.76c1.96-2.05-0.29-3.88-0.07-5.75
	C931.66,261.15,931.66,261.15,931.56,272.28z"/>
<path d="M908.48,295.25c0.85-1.37,0.59-2.74,0.01-4.12c1.95-0.7,0.47-2.69,1.53-3.87c1.89,1.14-1.35,5.13,2.3,4.81
	c2.03-0.18,3.93-1.79,6.06-2.4C915.39,292.13,912.34,294.43,908.48,295.25z"/>
<path d="M881.09,221.78c0.1,6.14,1.67,12.21,2.22,18.39C881.55,234.19,880.29,228.15,881.09,221.78z"/>
<path d="M872.48,205.39c-5.33,2.38-10.78-2.32-17.11,1.53c3.55-2.83,4.84-3.26,8.91-2.44C867.03,205.03,869.71,205.67,872.48,205.39
	z"/>
<path d="M898.5,299.1c4.42,1.3,6.38-3.65,10.15-3.99c-1.37,2.75-4.08,3.89-6.55,5.23C900.77,301.07,898.9,301.79,898.5,299.1z"/>
<path d="M909.46,284.17c4.29-3.69,6.82-0.51,9.56,1.69C916.14,284.3,913.1,283.56,909.46,284.17z"/>
<path class="st3" d="M870.75,196.62c0.46,0.4,1.11,0.37,2.47,0.51c2.39,0.25,2.44,0.53,3.29,0.37c0.92-0.17,2.11-0.73,2.16-1.47
	c0.07-0.88-1.48-1.68-2.78-1.76c-1.12-0.07-1.15,0.45-3.5,0.88c-1.03,0.19-1.74,0.22-1.96,0.59
	C870.27,196.03,870.49,196.4,870.75,196.62z"/>
<g id="Capa_2">
	<text transform="matrix(1 0 0 1 171.6094 127.4625)"><tspan x="0" y="0" class="st4 st5">Placas dorsales </tspan><tspan x="0" y="45.6" class="st4 st5">de un Estegosaurio</tspan></text>
	<g>
		<text transform="matrix(1 0 0 1 501.6397 348.0387)"><tspan x="0" y="0" class="st4 st5">Forma general de </tspan><tspan x="0" y="45.6" class="st4 st5">un modelo antiguo </tspan><tspan x="0" y="91.2" class="st4 st5">de Tiranosaurio rex</tspan></text>
	</g>
	<g>
		<text transform="matrix(1 0 0 1 1000.4006 74.4353)"><tspan x="0" y="0" class="st4 st5">Brazos largos </tspan><tspan x="0" y="45.6" class="st4 st5">de un </tspan><tspan x="0" y="91.2" class="st4 st5">Iguanodonte</tspan></text>
	</g>
</g>
</svg>
