<?xml version="1.0" encoding="utf-8"?>
<!-- Generator: Adobe Illustrator 24.0.1, SVG Export Plug-In . SVG Version: 6.00 Build 0)  -->
<svg version="1.1" id="Capa_1" xmlns="http://www.w3.org/2000/svg" xmlns:xlink="http://www.w3.org/1999/xlink" x="0px" y="0px"
	 viewBox="0 0 841.89 450.85" style="enable-background:new 0 0 841.89 450.85;" xml:space="preserve">
<style type="text/css">
	.st0{fill:#BF605B;}
	.st1{display:none;}
	.st2{display:inline;fill:none;stroke:#000000;stroke-miterlimit:10;}
</style>
<g id="Capa_1_1_">
	<path class="st0" d="M628.92,226.88c3.82,0,7.79,0,12.81,0c-4.06-4.65-8.82-5.56-12.97-3.97c-6.28,2.41-10.11-1.52-14.81-4.37
		c4.02-0.51,8.02-1.28,12.05-1.49c12.77-0.65,25.54-1.09,37.7-5.78c1.19-0.46,2.63-0.4,3.95-0.37c32.26,0.54,63.85-5.03,95.46-10.42
		c4.91-0.84,9.83-1.63,14.75-2.34c2.86-0.41,5.17-0.11,7.42,2.59c1.61,1.92,4.94,2.93,7.64,3.27c3.12,0.39,6.38-0.42,9.58-0.7
		c0.33,0.48,0.66,0.97,0.98,1.45c-1.94,1.02-3.89,2.05-5.83,3.07c0.4,0.62,0.79,1.24,1.19,1.86c2.62-0.23,5.24-0.47,8.71-0.77
		c-1.98,2.07-3.41,3.56-5.33,5.57c4.97,1.38,9.55,2.43,13.96,3.93c5.85,2,5.96,2.43,5.05,8.33c1.84,1.13,3.76,2.3,5.93,3.64
		c-3.54,3.9-6.82,7.52-10.93,12.05c6.56-0.43,11.73-0.77,16.91-1.11c0.11,0.73,0.22,1.46,0.33,2.19c-5.54,1.52-11.09,3.04-17.6,4.83
		c2.45,1.89,4.19,3.23,6.27,4.83c-2.79,1.3-5.25,2.45-8.22,3.83c2.02,1.33,3.5,2.31,5.38,3.55c-4,1.17-7.59,2.22-11.18,3.27
		c0.06,0.55,0.12,1.09,0.18,1.64c3.63,0.56,7.26,1.12,10.9,1.67c-0.01,0.16,0.02,0.65-0.06,0.67
		c-15.81,3.87-26.14,15.23-34.89,27.54c-9.4,13.21-17.27,27.54-25.37,41.64c-8.52,14.84-16.5,30-24.76,44.99
		c-4.12,7.49-8.28,10.75-17.61,13.69c0.23-2.6,0.43-4.93,0.7-7.96c-1.92,1.08-3.38,1.9-5.33,3c-1.25-2.29-2.47-4.52-4.04-7.4
		c-1.64,2.22-2.99,3.99-4.28,5.8c-1.34,1.88-2.63,3.79-3.31,4.77c-6.32-2.24-12.09-4.28-18.23-6.46c0.16-1.82,0.38-4.21,0.68-7.48
		c-3,1.79-5.3,3.16-8.05,4.8c0.47-8.96,4.96-18.95-8.72-22.08c5.06-12.42,10.04-24.16,14.59-36.05c1.56-4.06,1.83-8.6,3.12-12.79
		c1.19-3.86,2.43-7.86,4.55-11.24c5.36-8.53,11.23-16.75,17-25.25c-6.86-2.04-8.24-1.15-10.89,4.28c-1.18,2.41-3.78,4.12-5.73,6.15
		c-0.53-0.45-1.07-0.9-1.6-1.35c2.02-2.72,4.04-5.44,6.93-9.31c-26.42,2.51-51.53-0.41-76.52-4.74c0.04-0.55,0.09-1.11,0.13-1.66
		c4.26,0.43,8.52,0.82,12.77,1.32c2.47,0.29,4.99,0.55,7.36,1.24c4.88,1.41,7.17-0.78,8.41-5.92c-11.29-1.7-22.4-3.38-33.5-5.05
		c-0.02-0.19-0.05-0.39-0.07-0.58c4.29-0.53,8.59-1.06,12.88-1.59c-0.01-0.44-0.02-0.89-0.03-1.33c-3.47-0.57-6.95-1.13-10.46-1.71
		c-0.04-0.25-0.23-0.65-0.1-0.81c5.55-7.19,5.25-7.08-4.01-9.16c-11.71-2.64-23.07-1.94-34.45,1.27c-1.32,0.37-2.58,0.94-3.86,1.41
		c-0.03,0.58-0.05,1.17-0.08,1.75c6.71,1.53,13.41,3.05,21.02,4.79c-2.51,1.67-4.19,2.79-5.87,3.9c0.03,0.37,0.07,0.74,0.1,1.11
		c2.92,0.31,5.83,0.61,10.34,1.09c-7.14,4.13-13.05,7.54-18.96,10.96c0.03,0.37,0.07,0.74,0.1,1.11c3.57,0.21,7.13,0.42,10.7,0.63
		c0.09,0.38,0.18,0.76,0.27,1.13c-22.72,7.5-45.44,15-68.16,22.5c0.21,0.75,0.43,1.51,0.64,2.26c8.95-2.48,17.9-4.96,26.85-7.44
		c0.1,0.33,0.2,0.66,0.3,0.98c-10.42,3.69-20.85,7.36-31.27,11.09c-20.45,7.32-39.57,17.13-57.63,29.26
		c-22.78,15.3-46.33,29.48-68.8,45.21c-7.18,5.03-13.03,10.29-22.5,8.25c-2.35-0.51-5.12,0.97-8.33,1.67
		c-0.18-2.63-0.34-5-0.59-8.64c-4.58,3.96-8.46,7.31-12.35,10.67c-0.49-0.1-0.98-0.2-1.48-0.3c0.33-1.88,0.2-4.02,1.09-5.58
		c2.79-4.91,6.09-9.52,8.92-14.4c0.88-1.52,0.92-3.52,1.34-5.3c-1.82,0.69-3.94,0.99-5.41,2.13c-5.06,3.94-9.9,8.17-15.01,12.45
		c-0.2-0.84-0.41-1.32-0.31-1.39c7.62-5.61,7.44-16.33,14.84-22.4c2.37-1.95,2.17-7.03,3.15-10.68c-0.65-0.33-1.31-0.66-1.96-0.99
		c-3.34,3.5-6.68,7.01-10.02,10.51c-0.41-0.32-0.82-0.64-1.23-0.97c2.15-2.66,4.03-5.6,6.5-7.92c4.24-3.98,8.89-7.51,13.25-11.36
		c1.21-1.07,2.17-2.52,2.93-3.95c0.37-0.7,0.02-1.77-0.01-2.68c-0.89,0.05-1.86-0.13-2.65,0.18c-2.99,1.15-6.27,1.97-8.77,3.83
		c-3,2.24-5.3,5.4-8.24,8.53c-1.06-1.95-1.94-3.55-3.07-5.63c-5.56,4.93-10.83,9.61-16.11,14.29
		c19.82-23.79,47.28-38.11,72.28-58.03c-5.71-0.77-9.91-1.28-14.09-1.9c-16.07-2.42-32.14-4.8-48.19-7.34
		c-7.33-1.16-7.67-1.97-5.2-9.28c-2.72-1.11-5.43-2.22-9.71-3.96c3.9-1.77,6.39-3.61,9.09-3.98c7.57-1.03,10.76-5.64,11.8-13.21
		c-2.46-0.47-5.04-0.78-7.49-1.49c-1.59-0.46-3.01-1.52-4.51-2.31c1.23-1.09,2.28-2.59,3.72-3.19c5.58-2.32,11.27-4.36,16.8-7.68
		c-1.62-0.4-3.24-0.79-6.45-1.58c2.42-1.32,3.68-2.34,5.1-2.71c1.74-0.44,3.64-0.23,5.45-0.49c2.82-0.42,4.51-1.57,2.01-4.79
		c3.22-1.18,6.15-2.26,9.51-3.5c-0.18,1.05-0.31,1.83-0.33,1.93c11.05,0,22.12-0.01,33.19,0c4,0,7.99,0.06,11.99,0.05
		c4.03-0.02,7.47,0.69,9.34,5.01c0.41,0.95,2.7,1.49,4.15,1.53c5.62,0.17,11.25,0.07,16.87,0.07c0.09,0.45,0.17,0.9,0.26,1.34
		c-4.47,1.27-8.95,2.55-13.42,3.82c-0.03,0.63-0.05,1.26-0.08,1.89c4.1,0.75,8.2,1.49,12.73,2.31c-6.97,0.66-13.46,1.28-19.94,1.9
		c0,0.53-0.01,1.05-0.01,1.58c3.91,0.36,7.81,0.75,11.72,1.07c2.16,0.18,4.32,0.31,6.48,0.32c5.45,0.02,8.03,3.18,9.18,8.61
		c-1.63,0.09-3.2,0.14-4.76,0.26c-2.44,0.19-5.55-0.92-5.69,3.47c-0.02,0.73-2.31,1.58-3.66,2.04c-1.85,0.62-3.8,0.92-5.65,1.85
		c8.6,3,16.78,2.07,24.87-2.11c15.33-7.92,30.38-16.59,46.31-23.1c16.24-6.63,33.17-11.88,50.19-16.16
		c16.53-4.16,30.39,2.34,41.15,15.19c6.48,7.73,21.27,10.57,29.92,5.35c0.69-0.42,1.53-0.59,2.3-0.88c-0.3-0.63-0.61-1.27-0.91-1.9
		c-2.38,0-4.77,0.12-7.14-0.04c-1.96-0.13-4.13-0.13-5.77-1.02c-1.45-0.78-2.28-2.7-3.39-4.11c1.63-1.1,3.14-2.87,4.9-3.15
		c3.25-0.51,6.64-0.15,9.97-0.15C626.28,231.99,626.28,231.99,628.92,226.88z"/>
	<path class="st0" d="M91.2,182.11c0.3-1.61,0.51-2.71,0.78-4.18c-7.01-1.67-10.14-7.85-14.95-12.17
		c-8.57-7.69-17.33-16.18-30.04-17.19c-2.94-0.23-5.86-0.84-8.79-1.28c0.01-0.48,0.03-0.97,0.04-1.45c1.31,0.12,2.79-0.11,3.9,0.43
		c6.89,3.36,13.48,1.7,21.69-0.94c-3.46-3.81-6.24-6.85-9.07-9.97c2.15,0,4.83,0.36,7.35-0.1c2.41-0.44,4.67-1.73,6.91-3.35
		c-7.95-5-16.06-8.61-25.35-6.79c-5.51,1.08-10.41,0.14-15.31-2.89c0.96-0.11,2.16-0.64,2.84-0.25c6.57,3.68,12.86,1.66,19.21-0.61
		c1.33-0.48,3.23-1.19,4.18-0.63c5.31,3.18,6.98-0.71,9.71-4.8c-3.64-0.51-6.68-0.79-9.66-1.41c-1.21-0.25-2.27-1.25-3.4-1.91
		c1.24-0.48,2.5-1.42,3.71-1.37c11.78,0.58,23.56,1.44,35.34,1.93c2.5,0.1,6.23,1.03,6.29-3.67c4.34,1.23,8.68,2.45,13.02,3.68
		c0.25-0.62,0.5-1.23,0.75-1.85c-6.33-2.88-12.66-5.77-18.99-8.65c0.07-0.37,0.15-0.73,0.22-1.1c1.15,0,2.36-0.23,3.45,0.03
		c20.15,4.89,40.27,9.91,60.45,14.7c3.31,0.79,6.87,0.44,10.27,0.92c3.53,0.5,7,1.4,10.51,2.09c7.76,1.51,15.47,3.33,23.29,4.39
		c6.05,0.82,10.85,3.42,15.6,7.07c3.53,2.7,7.85,5.15,12.14,5.9c5.34,0.94,7.62,3.58,9.19,8.29c6.32,19.05,12.54,38.14,19.49,56.97
		c2.89,7.84,6.85,15.3,5.26,23.9c-1.84,9.93-4.2,19.77-6.35,29.65c-4.59,21.11-7.75,42.39-8.71,64.02
		c-0.19,4.23-2.6,8.35-4.39,13.74c-1.43-2.36-2.1-3.47-3.44-5.67c-2.8,7.37-5.26,13.86-7.72,20.36c-0.38-0.02-0.76-0.05-1.13-0.07
		c-1.52-4.91-3.04-9.83-4.56-14.74c-0.31,0.03-0.62,0.06-0.92,0.09c-1.7,8.33-3.39,16.67-5.08,25c-0.68-0.05-1.35-0.09-2.03-0.14
		c-1.03-4.46-2.07-8.92-3.46-14.93c-2.99,5.59-5.23,9.77-7.71,14.39c-1.31-1.47-2.44-2.74-3.99-4.48
		c-2.89,4.53-5.62,8.83-8.74,13.72c-2.15-4.36-4.62-7.71-9.89-5.76c-0.55,0.2-1.59-0.89-2.39-1.39c-1.24-0.78-2.38-2-3.73-2.32
		c-30.75-7.15-61.7-12.66-93.5-11.16c-7.14,0.34-14.34,0.49-21.47,0.05c-11.91-0.74-23.79-2.03-35.68-3.08
		c-0.02-0.57-0.03-1.15-0.05-1.72c2.23-1.32,4.55-2.52,6.67-4c4.41-3.09,4.26-5.74-0.17-8.68c-5.84-3.87-12.04-6.3-19.22-5.56
		c-1.58,0.16-3.2-0.11-4.8-0.18c-0.12-0.41-0.24-0.82-0.36-1.22c10.25-4.19,20.5-8.38,31.05-12.69c-0.72-1.48-1.27-2.6-2-4.11
		c5.41-2.75,14.7,0.33,15.48-10.22c-6.22-0.4-12.24-0.79-18.26-1.18c-0.06-0.86-0.12-1.72-0.18-2.58c4.27-1.13,8.55-2.25,13.74-3.62
		c-3.44-2.7-6.31-4.96-9.22-7.25c2.54-1.28,4.8-2.42,8.27-4.17c-4.55-2.69-7.74-4.59-10.87-6.44c0.27-0.73,0.31-1.22,0.5-1.29
		c14.26-5.18,29.09-11.25,44.01-6.29c13.82,4.59,27.73,4.56,41.68,5.72c12.91,1.07,25.9,1.33,38.86,1.74
		c3.85,0.12,7.78-0.16,11.56-0.84c1.15-0.21,2.51-2.25,2.83-3.67c2.16-9.63,6.39-18.99,4.2-29.24c-0.07-0.32-0.13-0.73,0.01-0.99
		c5.02-9.37-0.19-19.25,1.37-28.82c0.25-1.54-0.6-4.25-1.75-4.85c-5.26-2.75-10.61-6.04-16.3-7.12c-18.24-3.45-36.65-6-54.99-8.91
		C102.82,184.07,97.28,183.12,91.2,182.11z M142.43,276.59c0.03-0.34,0.07-0.67,0.1-1.01c2.22-0.14,4.44-0.27,6.66-0.41
		c-0.03-0.16-0.05-0.32-0.08-0.48c-2.81,0.22-5.62,0.45-8.43,0.67c0.04,0.53,0.08,1.06,0.12,1.58c4.1,0,8.21,0,12.31,0
		c0.01-0.12,0.01-0.23,0.02-0.35C149.57,276.59,146,276.59,142.43,276.59z"/>
	<path class="st0" d="M490.01,125.43c0.86-3.17,1.74-6.33,2.57-9.5c1.39-5.3-0.85-7.31-6.43-5.94c-0.81,0.2-1.78-0.21-2.99-0.38
		c-2.37,7.04-5.02,14.05-12.26,17.81c-3.82-3.99-8.72-3.58-15.3,3.95c-2.71-14.94,1.39-29.78-2.83-44.61
		c-5.61,5.19-3.93,14.04-12.12,17.83c0.51-9.39,0.99-18.06,1.46-26.73c0.31-0.48,0.62-0.95,0.93-1.43c3,8.19,7.85,5.29,12.51,3.59
		c3.27-1.19,6.54-2.38,10.32-3.75c1.07,1.9,2.33,3.64,3.08,5.57c1.68,4.31,3.69,7.57,9.33,3.79c2.08,5.3,3.97,10.12,6.38,16.28
		c1.93-4.44,3.31-7.6,5.11-11.74c0.61,3.24,1.02,5.37,1.69,8.94c1.25-2.51,1.91-3.61,2.37-4.78c1.08-2.76,1.62-5.68,6-4.95
		c1.3,0.22,2.95-2.35,4.59-3.4c2.16-1.38,4.47-2.52,6.71-3.77c1.02,2.01,2,4.05,3.07,6.03c0.53,0.99,1.25,1.89,1.85,2.85
		c0.79,1.28,1.55,2.57,2.88,4.81c1.08,0.07,3.51,0.22,5.92,0.36c1.07,7.99,2.34,9.23,10.35,10.83c3.86,0.77,7.65,1.83,11.52,2.77
		c0.38-6.13,1.24-6.53,7.27-5.39c13.02,2.46,26.08,4.67,39.13,6.95c0.74,0.13,1.53,0.02,2.29,0.02c0.15-0.59,0.31-1.17,0.46-1.76
		c-6.73-1.8-13.45-3.6-20.18-5.4c0.09-0.56,0.17-1.12,0.26-1.68c2.47,0,5.02-0.4,7.4,0.06c23.45,4.56,46.78,9.79,70.32,13.76
		c16.34,2.75,32.93,4.41,49.47,5.5c16.25,1.06,32.6,0.7,48.9,1.13c6.81,0.18,13.61,0.7,20.4,1.25c3.81,0.31,7.45,0.97,9.49,5.06
		c1.34,2.67,3.34,5.01,5.05,7.5c0.44-0.15,0.87-0.29,1.31-0.44c-2.46-0.17-4.91-0.46-7.37-0.49c-12.15-0.14-24.31-0.28-36.46-0.22
		c-1.26,0.01-2.52,1.34-3.78,2.06c1.15,0.8,2.24,2.16,3.46,2.29c5.12,0.53,10.28,0.69,15.42,0.97c0.66,0.04,1.49-0.27,1.97,0.02
		c8.15,4.85,16.87,1.87,25.36,1.84c3.73-0.02,5.63,1.04,6.2,5.22c0.69,5.03,0.22,11.21,7.97,12.47c-2.26,3.32-5.71,5.53-3.52,9.51
		c0.04,0.07-1.39,1.29-2.23,1.46c-2.28,0.45-4.6,0.81-6.91,0.86c-32.93,0.71-65.87,1.35-98.8,2.04c-1.4,0.03-2.8,0.27-4.2,1.32
		c25.86,1.98,51.76,2.2,77.66,2.2c0.14,0.71,0.29,1.43,0.43,2.14c-2.86,0.78-5.7,2.13-8.59,2.24c-8.65,0.33-17.31,0.1-25.97,0.25
		c-2.52,0.04-5.03,0.65-7.55,1c0.02,0.5,0.05,1,0.07,1.5c18.87,0.88,37.74,1.76,56.61,2.64c0.04,0.37,0.08,0.74,0.12,1.11
		c-6.41,0.86-12.82,2.42-19.24,2.46c-36.46,0.24-72.93,0.36-109.39-0.09c-8-0.1-15.93-3.03-23.96-4.03
		c-11.4-1.41-21.62-6.02-32.16-10.1c-9.95-3.86-20.5-6.19-31.08-8.65c1.34,0.08,2.67,0.15,5.59,0.32c-2.01-2.5-2.95-4.49-4.53-5.49
		c-5.47-3.48-10.89-7.23-16.82-9.69c-5.72-2.38-12.02-3.42-18.12-4.78c-2.61-0.58-5.31-0.86-4.61-4.36
		c0.69-3.44,3.43-2.31,5.65-1.89c7.49,1.41,14.94,3.14,22.48,4.17c2.75,0.38,5.74-0.74,8.57-1.4c3.04-0.71,6.01-1.67,10.58-2.97
		c-4.88-2.96-8.43-5.1-12.89-7.8c8.61-0.38,16.66,3.7,24.67-2.58c-2.87-0.98-4.9-1.81-7.01-2.38c-6.73-1.8-13.52-3.4-20.23-5.29
		c-3.03-0.85-6.8-0.87-7.52-5.3c-0.1-0.61-1.55-1.1-2.44-1.47c-1.53-0.63-3.1-1.21-4.69-1.67c-17.07-5.03-13.71-6.79-23.92,8.52
		c-2.01,3.02-3.95,6.09-6.15,9.5c-1.37-1.25-2.39-2.18-3.64-3.31c-1.46,0.92-2.96,1.86-4.93,3.1c-2.38-4.1-4.67-8.05-7.56-13.04
		c-1.43,2.27-2.48,3.93-3.53,5.6C490.88,125.95,490.45,125.69,490.01,125.43z M689.68,137.18c-0.03,0.24-0.07,0.49-0.1,0.73
		c9.77,0,19.54,0,29.31,0c0-0.24,0-0.49,0-0.73C709.15,137.18,699.41,137.18,689.68,137.18z"/>
	<path class="st0" d="M382.55,220.14c8.13-0.39,16.26-0.69,24.38-1.27c1.57-0.11,3.06-1.34,4.58-2.05c-0.99-1.2-1.78-2.69-3.01-3.56
		c-5.43-3.84-10.96-7.53-16.49-11.23c-1.44-0.96-3-1.74-4.51-2.6c-0.41,0.44-0.83,0.88-1.24,1.32c2.46,2.76,4.91,5.51,7.37,8.27
		c-20.29-12.41-38.88-27.97-62.56-34.48c6.4,1.28,12.79,2.56,19.19,3.85c0.17-0.5,0.34-1,0.5-1.51c-4.37-7.06-11.69-9.92-19.21-12.5
		c0.07-0.47,0.14-0.95,0.2-1.42c6.07,0.33,12.15,0.74,18.23,0.89c0.96,0.02,2.71-1.06,2.8-1.8c0.6-4.82,3.78-4.14,7.02-3.68
		c2.04,0.29,4.1,0.43,6.15,0.63c0.19-0.56,0.38-1.12,0.57-1.68c-2.5-1.11-4.94-2.35-7.5-3.32c-4.71-1.78-9.62-2.57-11.23-9.04
		c-0.58-2.33-5.59-3.48-8.47-5.33c-2.68-1.72-5.21-3.66-7.82-5.49c-1.21-0.85-2.33-2.13-3.66-2.42c-8.57-1.82-17.15-3.68-25.81-4.97
		c-3.2-0.48-4.9-0.69-5.4-4.6c-0.46-3.6-2.73-6.97-4.88-10.26c0.95-3.38,3.77-6.86,0.61-11.1c-0.48-0.65-0.03-2.33,0.46-3.31
		c2.73-5.5,5.45-11.03,8.53-16.34c0.96-1.67,3.02-2.7,4.58-4.02c0.49,0.17,0.97,0.34,1.46,0.52c0.19,3.47,0.38,6.94,0.57,10.5
		c0.36,0,0.84,0.08,1.27-0.01c2.68-0.61,6.09-2.6,7.86-1.61c3.96,2.21,7.31,5.59,7.29,11.05c-0.03,8.68-3.66,16.07-7.72,23.36
		c-0.63,1.12-1.32,2.21-2.34,3.92c2.87,1,5.29,1.97,7.77,2.68c11.65,3.35,23.3,6.68,34.99,9.88c2.04,0.56,4.35,0.88,6.38,0.49
		c1.76-0.34,4.79-2.1,4.67-2.79c-0.41-2.33-1.42-5.22-3.2-6.48c-2.28-1.61-5.53-1.85-8.44-2.7c0.16-4.99,3.79-3.57,6.5-3.81
		c2.69-0.24,5.37-0.56,8.06-0.84c0.1-0.48,0.19-0.96,0.29-1.44c-2.14-1.46-4.27-2.92-6.41-4.38c0.12-0.49,0.24-0.99,0.37-1.48
		c4.82,0.45,9.86,0.12,14.41,1.46c25.78,7.61,52.11,13.89,75.14,28.64c1.89,1.21,2.99,3.61,4.55,5.37c2.24,2.52,4.33,5.26,6.91,7.37
		c3.13,2.55,6.7,4.55,10.64,7.16c-5.23,3.99-3.04,7.11,0.12,10.51c-2.09,1.41-3.92,2.64-5.99,4.03c0.77,1.88,1.5,3.65,1.66,4.05
		c-2.04,2.77-3.16,5.16-5.03,6.57c-1.68,1.27-4.13,1.77-6.32,2.03s-4.46-0.21-6.7-0.36c-0.13,0.48-0.25,0.96-0.38,1.44
		c1.52,1.65,3.05,3.3,4.68,5.08c-1.11,1.33-2.13,2.55-3.36,4.03c1.48,1.55,2.83,2.96,4.18,4.37c-6.4,4.17-12.29,2.49-18.18-1.32
		c-1.27-0.82-3.21-0.6-4.85-0.86c0.41,1.5,0.73,3.03,1.26,4.49c0.66,1.82,1.51,3.58,2.98,7c-8.75-1.14-16.21-2.11-25.09-3.27
		c2.79,3.62,4.73,6.15,6.91,8.98c-13.76,0-27.03,0-40.31,0C382.55,220.55,382.55,220.34,382.55,220.14z"/>
	<path class="st0" d="M228.51,88.37c-2.61-2.48-4.89-4.37-6.82-6.57c-1.21-1.38-2.56-3.16-2.72-4.86c-0.7-7.3,0.96-8.5,8.09-6.79
		c2.39,0.57,4.93,1,7.37,0.86c11.21-0.65,21.26,2.42,30.47,8.73c2.71,1.85,5.76,3.22,8.44,4.69c-2.2,5.46,3.33,4.93,5.23,6.88
		c2.3-2,4.16-4.1,6.45-5.48c2.47-1.49,3.99-0.32,4.28,2.61c0.77,7.87-4.41,15.18-12.19,17.02c-0.64,0.15-1.49,0.07-1.91,0.46
		c-6.84,6.32-16.05,6.39-24.24,9.07c-2.41,0.79-6.24,0.88-7.98-0.51c-7.46-5.96-14.44-12.54-21.4-19.1
		c-0.45-0.43,0.3-2.97,1.18-3.79C224.13,90.31,226.1,89.66,228.51,88.37z"/>
</g>
<g id="Capa_2_1_" class="st1">
	<path class="st2" d="M113.55,110.5c0.43-1.08-19.76-9.43-19.22-10.94c0.13-0.37,1.57-0.59,20.3,4.24
		c20.44,5.27,30.66,7.9,32.52,8.48c4.14,1.27,9.74,2.84,17.54,3.55c4.25,0.38,7.79,0.36,10.2,0.28c2.2,0.95,4.9,2,8.04,3
		c2.87,0.91,6.11,1.93,10.12,2.53c8.26,1.23,10.21-0.77,16.08,1.34c1.37,0.49,3.73,1.34,6.25,3.28c3.54,2.72,3.95,4.92,7.74,7
		c0.36,0.2,2.18,1.18,4.76,1.79c3.72,0.88,5.12,0.07,7,0.74c3.62,1.29,4.85,6.55,5.36,8.64c2.25,9.24,6.09,18.02,8.93,27.1
		c2.08,6.63,4.85,15.48,9.84,26.34c2.75,5.99,3.89,7.6,4.98,11.79c2.4,9.21,0.97,17.01,0,22c-4.7,24.22-6.08,30.5-7.33,37.19
		c-4.37,23.39-6.95,37.2-6.29,45.58c0.09,1.17,0.46,4.98-1.05,9.43c-1.22,3.6-3.18,6.15-4.45,7.6c-0.7-2.01-1.4-4.02-2.1-6.02
		c-2.88,7.07-5.76,14.14-8.64,21.22c-2.53-5.94-5.06-11.87-7.6-17.81c0.23,3.74,0.15,9.05-1.31,15.19
		c-1.42,5.99-3.66,10.68-5.5,13.88c0.12-8.41-1.03-14.68-2.88-14.93c-1.86-0.26-4.65,5.47-6.81,13.62
		c-1.02-2.41-2.76-5.86-4.71-5.76c-4.06,0.21-6.15,15.71-8.91,15.45c-1.63-0.15-1.4-5.6-4.45-6.55c-2.46-0.77-4.57,2.16-6.81,1.05
		c-1.59-0.79-0.94-2.46-2.62-3.67c-2.16-1.55-4.41,0.36-8.12-0.52c-2.32-0.55-3.42-1.77-4.98-2.88c-4.52-3.22-9.61-3.14-14.14-3.41
		c-11.9-0.69-14.5-3.4-37.98-4.98c-29.91-2.01-60.66,0.02-70.98,0.79c-1.82-1.16-4.57-2.62-8.12-3.41
		c-6.47-1.42-11.84,0.25-12.05-0.52c-0.31-1.17,12.49-3.52,13.1-8.91c0.28-2.48-2.12-4.64-3.67-6.02c-4.23-3.8-9.64-4.31-14.67-4.71
		c-6.22-0.5-9.21,0.4-9.43-0.26c-0.32-0.95,5.25-4.26,31.17-14.67c-2.44-1.81-2.79-2.68-2.62-3.14c0.37-0.98,3.08-0.15,6.81-1.31
		c2.54-0.79,4.24-2.1,5.24-2.88c3.05-2.39,4.68-5.25,5.5-7.07c-15.39-0.2-19.56-1.12-19.65-2.1c-0.1-1.17,5.63-3.78,11.53-3.93
		c2.29-0.06,3.69,0.28,3.93-0.26c0.32-0.73-1.61-2.81-12.05-8.91c2.08-0.17,8.3-0.8,8.64-2.88c0.46-2.8-10.1-6.5-11-6.81
		c5.31-2.12,9.84-3.54,13.1-4.45c10.29-2.89,19.33-5.44,30.12-3.67c4.82,0.79,4,1.46,11.26,3.14c9.43,2.18,15.54,2.15,23.57,2.62
		c18.54,1.08,49.1,4.96,53.71,1.23c0.3-0.24,1.58-1.4,3.13-1.23c1.83,0.2,2.31,2.07,3.41,2.1c2.33,0.05,4.27-8.23,4.98-11.26
		c1.78-7.6,2.67-11.4,2-15.67c-0.44-2.8-1.27-4.93-0.69-8.42c0.44-2.68,1.14-2.69,1.83-5.76c0.3-1.33,1.2-5.5,0-10.22
		c-0.94-3.71-2.16-3.74-2.1-6.29c0.08-3,1.78-3.91,1.31-6.55c-0.04-0.22-0.53-2.72-2.62-4.19c-2.69-1.89-5.21-0.08-7.07-1.83
		c-1.58-1.48-0.27-3.23-1.57-4.98c-1.93-2.59-6.7-1.28-13.36-1.31c-1.57-0.01-5.15-0.53-12.31-1.57
		c-23.93-3.48-40.72-11.93-49.51-8.12c-0.51,0.22-3.35,1.51-4.18,0.57c-0.86-0.97,1.58-3.13,1.03-5.55
		c-0.64-2.82-4.54-2.51-8.64-6.02c-3.61-3.08-2.38-4.83-6.02-8.64c-2.82-2.95-3.82-2.18-10.48-6.29c-8.02-4.95-7.84-6.85-12.31-7.86
		c-2.65-0.6-3.24-0.05-9.88-0.72c-3.08-0.31-5.6-0.7-7.25-0.98c0.72-1.55,1.75-3.2,2.94-3.17c0.86,0.02,1.24,0.91,2.42,1.74
		c0.82,0.57,1.77,0.93,4.98,1.21c4.27,0.36,6.41,0.54,9.21-0.08c3.1-0.69,5.28-1.17,5.66-2.49c1.03-3.58-12.16-9.99-11.55-11.17
		c0.24-0.45,2.19,0.47,6.42,1.06c6.04,0.84,8.34-0.16,9.21-0.6c1.05-0.54,3.04-1.55,3.02-2.87c-0.04-2.81-9.16-4.83-12.61-5.59
		c-2.45-0.54-4.47-0.97-7.25-0.91c-4.17,0.1-4.18,1.19-7.85,1.21c-1.98,0.01-1.26-0.31-10.34-2.26c-1.79-0.39-3.58-0.75-3.62-1.43
		c-0.03-0.46,0.74-0.96,1.43-1.13c1.34-0.34,2.56,0.48,3.32,0.91c1.95,1.09,3.75,1.19,6.79,1.36c4.46,0.25,8.54-1.67,9.96-2.34
		c2.35-1.1,3.88-2.29,5.59-1.66c1.26,0.47,1.31,1.44,2.42,1.81c2.6,0.87,7.2-2.89,6.72-4.83c-0.3-1.23-2.8-2.45-12.91-2.19
		c0.19-1.3,0.39-2.6,0.58-3.9c32.45,3.3,45.21,3.38,45.53,1.52c0.17-0.98-3.1-2.36-2.82-3.04
		C98.34,106.09,113.18,111.42,113.55,110.5z"/>
</g>
<g id="Capa_3">
</g>
</svg>
